<?xml version="1.0" encoding="UTF-8"?>
<svg class="icon" viewBox="0 0 1024 1024" version="1.1" xmlns="http://www.w3.org/2000/svg" width="20" height="24">
  <path d="M684.288 305.28l0.128-0.64-0.128-0.64V99.712c0-19.84 15.552-35.904 34.496-35.712a35.072 35.072 0 0 1 34.56 35.776v171.008h170.944c19.648 0 35.84 15.488 35.712 34.432a35.072 35.072 0 0 1-35.84 34.496h-204.16l-0.64-0.128a32.768 32.768 0 0 1-20.864-7.552c-1.344-1.024-2.816-1.664-3.968-2.816-0.384-0.32-0.512-0.768-0.832-1.088a33.472 33.472 0 0 1-9.408-22.848zM305.28 64a35.072 35.072 0 0 0-34.56 35.776v171.008H99.776A35.072 35.072 0 0 0 64 305.216c0 18.944 15.872 34.496 35.84 34.496h204.16l0.64-0.128a32.896 32.896 0 0 0 20.864-7.552c1.344-1.024 2.816-1.664 3.904-2.816 0.384-0.32 0.512-0.768 0.768-1.088a33.024 33.024 0 0 0 9.536-22.848l-0.128-0.64 0.128-0.704V99.712A35.008 35.008 0 0 0 305.216 64z m618.944 620.288h-204.16l-0.64 0.128-0.512-0.128c-7.808 0-14.72 3.2-20.48 7.68-1.28 1.024-2.752 1.664-3.84 2.752-0.384 0.32-0.512 0.768-0.832 1.088a33.664 33.664 0 0 0-9.408 22.912l0.128 0.64-0.128 0.704v204.288c0 19.712 15.552 35.904 34.496 35.712a35.072 35.072 0 0 0 34.56-35.776V753.28h170.944c19.648 0 35.84-15.488 35.712-34.432a35.072 35.072 0 0 0-35.84-34.496z m-593.92 11.52c-0.256-0.32-0.384-0.768-0.768-1.088-1.088-1.088-2.56-1.728-3.84-2.688a33.088 33.088 0 0 0-20.48-7.68l-0.512 0.064-0.64-0.128H99.84a35.072 35.072 0 0 0-35.84 34.496 35.072 35.072 0 0 0 35.712 34.432H270.72v171.008c0 19.84 15.552 35.84 34.56 35.776a35.008 35.008 0 0 0 34.432-35.712V720l-0.128-0.64 0.128-0.704a33.344 33.344 0 0 0-9.472-22.848zM512 374.144a137.92 137.92 0 1 0 0.128 275.84A137.92 137.92 0 0 0 512 374.08z"></path>
</svg>
