<?xml version="1.0" standalone="no"?><!DOCTYPE svg PUBLIC "-//W3C//DTD SVG 1.1//EN" "http://www.w3.org/Graphics/SVG/1.1/DTD/svg11.dtd"><svg t="1612229632729" class="icon" viewBox="0 0 1024 1024" version="1.1" xmlns="http://www.w3.org/2000/svg" p-id="1812" xmlns:xlink="http://www.w3.org/1999/xlink" width="200" height="200"><defs><style type="text/css"></style></defs><path d="M278.755 777.557h89.543c22.642 0 40.96-18.318 40.96-40.96v-407.211c0-22.642-18.318-40.96-40.96-40.96h-89.543c-22.642 0-40.96 18.318-40.96 40.96v407.211c0 22.528 18.432 40.96 40.96 40.96zM292.409 343.040h62.237v379.904h-62.237v-379.904zM501.191 777.557h89.543c22.642 0 40.96-18.318 40.96-40.96v-521.102c0-22.642-18.318-40.96-40.96-40.96h-89.543c-22.642 0-40.96 18.318-40.96 40.96v521.102c0 22.528 18.432 40.96 40.96 40.96zM514.845 229.149h62.237v493.795h-62.237v-493.795zM723.627 777.557h89.543c22.642 0 40.96-18.318 40.96-40.96v-257.479c0-22.642-18.318-40.96-40.96-40.96h-89.543c-22.642 0-40.96 18.318-40.96 40.96v257.479c0 22.528 18.432 40.96 40.96 40.96zM737.28 492.771h62.237v230.173h-62.237v-230.173z" fill="" p-id="1813"></path><path d="M863.687 816.242h-676.181v-633.173c0-15.133-12.174-27.307-27.307-27.307s-27.307 12.174-27.307 27.307v659.911c0 6.258 2.048 11.947 5.575 16.498 5.006 6.827 13.085 11.378 22.187 11.378h703.147c15.133 0 27.307-12.174 27.307-27.307-0.114-15.019-12.288-27.307-27.421-27.307z" fill="" p-id="1814"></path></svg>