<?xml version="1.0" standalone="no"?><!DOCTYPE svg PUBLIC "-//W3C//DTD SVG 1.1//EN" "http://www.w3.org/Graphics/SVG/1.1/DTD/svg11.dtd"><svg t="1612229966373" class="icon" viewBox="0 0 1024 1024" version="1.1" xmlns="http://www.w3.org/2000/svg" p-id="2626" xmlns:xlink="http://www.w3.org/1999/xlink" width="200" height="200"><defs><style type="text/css"></style></defs><path d="M742.4 755.456H564.770133c-14.4384 0-26.112 12.475733-26.112 27.869867v168.618666h28.433067L742.4 760.439467v-4.983467zM742.4 699.733333v-88.183466c0-15.189333 11.4688-27.477333 25.6-27.477334s25.6 12.288 25.6 27.477334v160.136533c0 7.2192-2.645333 14.1312-7.338667 19.285333L596.087467 998.7072a24.746667 24.746667 0 0 1-18.261334 8.226133H194.56C129.536 1006.933333 76.8 950.306133 76.8 880.452267V143.530667C76.8 73.693867 129.536 17.066667 194.56 17.066667h481.28C740.864 17.066667 793.6 73.693867 793.6 143.547733v48.930134c0 15.189333-11.4688 27.477333-25.6 27.477333s-25.6-12.288-25.6-27.477333V143.530667c0-39.4752-29.7984-71.492267-66.56-71.492267H194.56c-36.7616 0-66.56 32.017067-66.56 71.509333v736.887467c0 39.4752 29.7984 71.492267 66.56 71.492267H486.4v-168.618667C486.4 737.160533 521.489067 699.733333 564.770133 699.733333H742.4zM289.058133 294.570667h33.3824l-15.581866 153.275733c-2.645333 26.026667-9.437867 45.056-20.4288 57.7536-12.1856 13.329067-29.986133 20.002133-53.674667 20.002133-20.548267 0-35.601067-6.3488-44.868267-19.0464-9.557333-12.6976-13.192533-30.139733-10.939733-52.360533l0.733867-7.304533h33.399466l-0.7168 6.997333c-2.645333 26.0096 6.024533 39.0144 26.282667 39.0144 11.127467 0 19.797333-3.805867 25.668267-11.093333 5.888-7.304533 9.642667-19.0464 11.281066-35.2256l15.4624-152.0128z m144.128-4.437334c23.978667 0 42.257067 5.393067 54.545067 16.503467 13.073067 11.741867 19.473067 30.139733 18.944 54.903467H473.6c-1.4336-13.9776-5.819733-24.132267-12.629333-30.1568-6.775467-6.3488-17.902933-9.198933-32.733867-9.198934-12.8512 0-22.7328 1.911467-30.0032 6.024534-9.045333 4.778667-13.858133 12.6976-14.9504 23.483733-0.9728 9.5232 2.798933 17.4592 11.912533 23.176533 4.027733 2.525867 15.240533 7.287467 33.399467 13.960534 26.709333 9.506133 43.6224 17.134933 51.0976 22.203733 16.503467 11.741867 23.7056 27.938133 21.572267 48.878933-2.048 20.309333-10.837333 36.488533-26.299734 48.2304-15.428267 11.434667-36.3008 17.4592-62.276266 17.4592-25.105067 0-44.253867-5.393067-57.1392-16.196266-15.7696-13.312-23.04-34.269867-21.538134-63.146667h33.109334c0.512 17.134933 4.693333 29.525333 12.8 36.8128 7.338667 6.3488 19.2512 9.8304 36.096 9.8304 14.848 0 27.101867-2.850133 36.215466-8.2432 9.147733-5.717333 14.455467-13.0048 15.428267-22.528 1.211733-12.066133-4.369067-21.589333-16.213333-28.5696-3.771733-2.218667-16.384-7.287467-38.161067-14.916267-24.200533-8.874667-39.253333-15.223467-44.868267-19.029333-14.626133-10.478933-20.7872-25.7024-18.7392-45.704533 2.030933-19.985067 11.0592-35.84 27.630934-47.274667 15.394133-11.093333 33.928533-16.503467 55.893333-16.503467z m207.223467 0c31.112533 0 54.528 11.093333 70.212267 33.621334 14.9504 21.282133 20.650667 49.527467 17.1008 84.4288-3.549867 34.901333-14.9504 62.8224-34.235734 84.087466-20.241067 22.2208-45.909333 33.3312-77.0048 33.3312-31.402667 0-54.784-11.434667-70.212266-33.6384-14.933333-21.589333-20.360533-49.5104-16.878934-83.797333 3.515733-34.577067 14.626133-62.498133 33.962667-84.0704C583.338667 301.226667 609.006933 290.133333 640.392533 290.133333z m-3.242667 32.682667c-21.128533 0-38.1952 7.936-51.5072 23.808-12.680533 15.223467-20.1728 35.5328-22.818133 61.559467-2.6112 25.7024 0.750933 46.011733 10.325333 61.252266 9.847467 15.530667 25.582933 23.466667 46.6944 23.466667 21.128533 0 38.161067-7.611733 51.0976-22.528 12.629333-14.916267 20.445867-35.5328 23.159467-62.190933 2.7136-26.658133-0.8704-47.616-10.4448-62.839467-9.864533-15.223467-25.3952-22.528-46.506667-22.528z m131.84-28.245333h33.3824l84.1216 163.4304h1.143467l16.605867-163.4304h33.672533l-23.04 226.577066h-32.529067L797.354667 355.498667h-1.143467l-16.8448 165.649066H745.984l23.04-226.577066z" p-id="2627" fill="#4A90E2"></path></svg>