<?xml version="1.0" standalone="no"?><!DOCTYPE svg PUBLIC "-//W3C//DTD SVG 1.1//EN" "http://www.w3.org/Graphics/SVG/1.1/DTD/svg11.dtd"><svg t="1612229544233" class="icon" viewBox="0 0 1024 1024" version="1.1" xmlns="http://www.w3.org/2000/svg" p-id="1668" xmlns:xlink="http://www.w3.org/1999/xlink" width="200" height="200"><defs><style type="text/css"></style></defs><path d="M237.714286 73.142857a36.571429 36.571429 0 0 1 36.571428 36.571429v804.571428a36.571429 36.571429 0 0 1-36.571428 36.571429H109.714286a36.571429 36.571429 0 0 1-36.571429-36.571429V109.714286a36.571429 36.571429 0 0 1 36.571429-36.571429h128m0-73.142857H109.714286a109.714286 109.714286 0 0 0-109.714286 109.714286v804.571428a109.714286 109.714286 0 0 0 109.714286 109.714286h128a109.714286 109.714286 0 0 0 109.714285-109.714286V109.714286a109.714286 109.714286 0 0 0-109.714285-109.714286zM950.857143 73.142857v256H512V73.142857h438.857143m0-73.142857H512a73.142857 73.142857 0 0 0-73.142857 73.142857v256a73.142857 73.142857 0 0 0 73.142857 73.142857h438.857143a73.142857 73.142857 0 0 0 73.142857-73.142857V73.142857a73.142857 73.142857 0 0 0-73.142857-73.142857zM621.714286 603.428571v347.428572h-109.714286V603.428571h109.714286m0-73.142857h-109.714286a73.142857 73.142857 0 0 0-73.142857 73.142857v347.428572a73.142857 73.142857 0 0 0 73.142857 73.142857h109.714286a73.142857 73.142857 0 0 0 73.142857-73.142857V603.428571a73.142857 73.142857 0 0 0-73.142857-73.142857zM950.857143 603.428571v347.428572h-109.714286V603.428571h109.714286m0-73.142857h-109.714286a73.142857 73.142857 0 0 0-73.142857 73.142857v347.428572a73.142857 73.142857 0 0 0 73.142857 73.142857h109.714286a73.142857 73.142857 0 0 0 73.142857-73.142857V603.428571a73.142857 73.142857 0 0 0-73.142857-73.142857z" p-id="1669"></path></svg>