<?xml version="1.0" encoding="UTF-8"?>
<svg width="136px" height="130px" viewBox="0 0 136 130" version="1.1" xmlns="http://www.w3.org/2000/svg" xmlns:xlink="http://www.w3.org/1999/xlink">
    <title>缺省插图</title>
    <defs>
        <radialGradient cx="21.004851%" cy="36.001386%" fx="21.004851%" fy="36.001386%" r="94.5945946%" id="radialGradient-1">
            <stop stop-color="#FFFFFF" offset="0%"></stop>
            <stop stop-color="#C1C1C1" offset="100%"></stop>
        </radialGradient>
        <radialGradient cx="88.790625%" cy="35.6875%" fx="88.790625%" fy="35.6875%" r="94%" id="radialGradient-2">
            <stop stop-color="#FFFFFF" offset="0%"></stop>
            <stop stop-color="#D7D7D7" offset="100%"></stop>
        </radialGradient>
        <linearGradient x1="0%" y1="50%" x2="100%" y2="50%" id="linearGradient-3">
            <stop stop-color="#F2F2F2" offset="0%"></stop>
            <stop stop-color="#EDEDED" offset="13%"></stop>
            <stop stop-color="#E0E0E0" offset="59%"></stop>
            <stop stop-color="#DBDBDB" offset="100%"></stop>
        </linearGradient>
        <linearGradient x1="50%" y1="100%" x2="50%" y2="0%" id="linearGradient-4">
            <stop stop-color="#FAFAFA" offset="0%"></stop>
            <stop stop-color="#DBDBDB" offset="100%"></stop>
        </linearGradient>
        <linearGradient x1="0%" y1="50%" x2="100%" y2="50%" id="linearGradient-5">
            <stop stop-color="#C9C9C9" offset="0%"></stop>
            <stop stop-color="#DADADA" offset="57%"></stop>
            <stop stop-color="#EBEBEB" offset="100%"></stop>
        </linearGradient>
        <linearGradient x1="0%" y1="50%" x2="100%" y2="30.8034258%" id="linearGradient-6">
            <stop stop-color="#FAFAFA" offset="0%"></stop>
            <stop stop-color="#DBDBDB" offset="100%"></stop>
        </linearGradient>
        <linearGradient x1="50%" y1="100%" x2="50%" y2="0%" id="linearGradient-7">
            <stop stop-color="#FAFAFA" offset="0%"></stop>
            <stop stop-color="#DBDBDB" offset="100%"></stop>
        </linearGradient>
        <linearGradient x1="0%" y1="50.0188893%" x2="100%" y2="50.0188893%" id="linearGradient-8">
            <stop stop-color="#FAFAFA" offset="0%"></stop>
            <stop stop-color="#ECECEC" offset="100%"></stop>
        </linearGradient>
        <linearGradient x1="0%" y1="49.9040947%" x2="100.831745%" y2="49.9040947%" id="linearGradient-9">
            <stop stop-color="#FAFAFA" offset="0%"></stop>
            <stop stop-color="#ECECEC" offset="100%"></stop>
        </linearGradient>
        <linearGradient x1="49.0482328%" y1="13.4708885%" x2="50.9292577%" y2="100.372512%" id="linearGradient-10">
            <stop stop-color="#FFF6EC" offset="0%"></stop>
            <stop stop-color="#FDEAD6" offset="100%"></stop>
        </linearGradient>
        <linearGradient x1="50.1802736%" y1="0.480524434%" x2="50.1802736%" y2="100.407187%" id="linearGradient-11">
            <stop stop-color="#494B80" offset="0%"></stop>
            <stop stop-color="#272756" offset="100%"></stop>
        </linearGradient>
        <linearGradient x1="50.2528613%" y1="0.230873489%" x2="50.2528613%" y2="98.213852%" id="linearGradient-12">
            <stop stop-color="#FAA35E" offset="0%"></stop>
            <stop stop-color="#F66357" offset="100%"></stop>
        </linearGradient>
        <linearGradient x1="52.011%" y1="-0.472262786%" x2="52.011%" y2="99.9500138%" id="linearGradient-13">
            <stop stop-color="#8CAFF7" offset="0%"></stop>
            <stop stop-color="#6A95F5" offset="100%"></stop>
        </linearGradient>
        <linearGradient x1="-1.09536082%" y1="58.5148074%" x2="52.7706186%" y2="49.3202949%" id="linearGradient-14">
            <stop stop-color="#1F1F49" offset="0%"></stop>
            <stop stop-color="#424776" offset="100%"></stop>
        </linearGradient>
        <linearGradient x1="-1.09606705%" y1="55.0150248%" x2="74.8549323%" y2="47.5291561%" id="linearGradient-15">
            <stop stop-color="#1F1F49" offset="0%"></stop>
            <stop stop-color="#424776" offset="100%"></stop>
        </linearGradient>
        <linearGradient x1="-0.118518519%" y1="50%" x2="100.118519%" y2="50%" id="linearGradient-16">
            <stop stop-color="#F2F2F2" offset="0%"></stop>
            <stop stop-color="#EDEDED" offset="13%"></stop>
            <stop stop-color="#E0E0E0" offset="59%"></stop>
            <stop stop-color="#DBDBDB" offset="100%"></stop>
        </linearGradient>
        <linearGradient x1="50%" y1="100%" x2="50%" y2="0%" id="linearGradient-17">
            <stop stop-color="#4B82FA" stop-opacity="0" offset="0%"></stop>
            <stop stop-color="#4B82FA" stop-opacity="0.6" offset="100%"></stop>
        </linearGradient>
        <linearGradient x1="50%" y1="100%" x2="50%" y2="0%" id="linearGradient-18">
            <stop stop-color="#4B82FA" stop-opacity="0" offset="0%"></stop>
            <stop stop-color="#4B82FA" stop-opacity="0.6" offset="100%"></stop>
        </linearGradient>
        <linearGradient x1="50%" y1="100%" x2="50%" y2="0%" id="linearGradient-19">
            <stop stop-color="#4B82FA" stop-opacity="0" offset="0%"></stop>
            <stop stop-color="#4B82FA" stop-opacity="0.6" offset="100%"></stop>
        </linearGradient>
    </defs>
    <g id="Page-1" stroke="none" stroke-width="1" fill="none" fill-rule="evenodd">
        <g id="系统管理/集群管理/空" transform="translate(-616.000000, -239.000000)">
            <g id="缺省插图" transform="translate(616.000000, 239.000000)">
                <circle id="椭圆形" fill="url(#radialGradient-1)" fill-rule="nonzero" opacity="0.84" cx="106.1775" cy="117.3225" r="10.8225"></circle>
                <circle id="椭圆形" fill="url(#radialGradient-2)" fill-rule="nonzero" opacity="0.66" cx="129.375" cy="54.645" r="6"></circle>
                <polygon id="路径" fill="url(#linearGradient-3)" fill-rule="nonzero" points="7.5 38.25 60.75 52.5 60.75 114 11.25 94.5"></polygon>
                <polygon id="路径" fill="url(#linearGradient-4)" fill-rule="nonzero" points="108 33.75 60.75 52.5 60.75 114 106.5 93"></polygon>
                <polygon id="路径" fill="url(#linearGradient-5)" fill-rule="nonzero" points="61.5 23.25 7.5 38.25 60.75 52.5 108 33.75"></polygon>
                <polygon id="路径" fill="url(#linearGradient-6)" fill-rule="nonzero" points="7.5 38.25 29.25 44.25 79.395 27.0375 61.5 23.25"></polygon>
                <polygon id="路径" fill="url(#linearGradient-7)" fill-rule="nonzero" points="29.25 44.25 60.75 52.5 107.985 33.7425 79.395 27.0375"></polygon>
                <polygon id="路径" fill="url(#linearGradient-8)" fill-rule="nonzero" points="36 45.9825 85.2 28.3875 75.3225 26.13 22.1625 42.1725"></polygon>
                <path d="M22.1625,42.1725 C22.1705775,42.2823517 22.1705775,42.3926483 22.1625,42.5025 L22.2225,43.3875 L22.3125,44.6325 L22.41,46.065 L22.5075,47.505 L22.5975,48.765 L22.6575,49.6725 C22.6580407,49.8808294 22.7516761,50.0780111 22.9127853,50.2100916 C23.0738944,50.3421721 23.2856094,50.3953227 23.49,50.355 C23.5517082,50.3410807 23.6102334,50.315635 23.6625,50.28 C23.7160192,50.2305003 23.7638179,50.1751544 23.805,50.115 C23.9548658,49.9373317 24.1727256,49.831125 24.405,49.8225 C24.6372177,49.8186033 24.8613535,49.9077176 25.0275,50.07 C25.2825,50.3175 25.365,50.715 25.635,50.9475 C25.9045223,51.1799484 26.2830723,51.2381869 26.61,51.0975 C26.925,50.9475 26.9775,50.535 27.36,50.49 C27.5876279,50.4778427 27.8065708,50.5788933 27.945,50.76 C28.0828672,50.939391 28.1916941,51.1393288 28.2675,51.3525 C28.3498525,51.5659622 28.4554908,51.7696932 28.5825,51.96 C28.7156905,52.1481288 28.9086756,52.2855977 29.13,52.35 C29.5640473,52.461239 30.0132916,52.233408 30.18,51.8175 C30.2520902,51.5895994 30.4587173,51.4308859 30.6975,51.42 C30.8876669,51.4098358 31.071367,51.4905525 31.1925,51.6375 C31.2565475,51.7229519 31.3094717,51.8161994 31.35,51.915 C31.4475,52.125 31.5525,52.3275 31.6575,52.53 C31.8191239,52.9019228 32.0782599,53.2232515 32.4075,53.46 C32.565,53.5425 32.7975,53.58 32.91,53.46 C32.9411506,53.4080087 32.9663111,53.3526557 32.985,53.295 C33.0643121,53.0171452 33.2053157,52.7607751 33.3975,52.545 C33.4351174,52.4973953 33.4808133,52.4567768 33.5325,52.425 C33.6117785,52.4098054 33.6932215,52.4098054 33.7725,52.425 C33.9525293,52.407303 34.1335659,52.4466588 34.29,52.5375 C34.3566571,52.5916641 34.4126159,52.6577972 34.455,52.7325 C34.5998903,52.948632 34.7206135,53.1800182 34.815,53.4225 C34.9034742,53.680259 35.0112805,53.9309714 35.1375,54.1725 C35.28,54.3825 35.7975,54.84 35.8875,54.405 C35.9249789,54.0936237 35.9249789,53.7788763 35.8875,53.4675 L35.8875,45.9825 L22.1625,42.1725 Z" id="路径" fill="url(#linearGradient-9)" fill-rule="nonzero"></path>
                <g id="人物" transform="translate(0.000000, 68.250000)">
                    <path d="M26.34,9.825 L24.2925,3.4425 L19.7925,2.79 C18.9675,2.45 18.2175,2.99 17.5425,4.41 C16.5,6.5325 16.59,11.6625 16.575,12.21 C16.56,12.7575 16.575,13.005 17.325,13.2975 C17.58,13.3875 19.335,13.125 19.785,13.47 C20.1075,13.71 20.22,14.37 20.145,15.45 C20.9431708,16.16983 21.938241,16.6347184 23.0025,16.785 C23.8703684,16.7288617 24.6978275,16.397878 25.365,15.84 L24.2925,12.915 L26.34,9.825 Z" id="脸" fill="url(#linearGradient-10)"></path>
                    <path d="M27.3825,3.6825 C26.8424445,2.11344494 25.5625873,0.912175384 23.9625,0.4725 C22.4859276,0.097579348 20.9390724,0.097579348 19.4625,0.4725 C18.2775,0.78 17.7825,0.6375 17.0025,1.905 C16.5725459,2.61032532 16.4428983,3.45843686 16.6425,4.26 C17.8085489,3.68080768 19.090593,3.37311709 20.3925,3.36 C21.5113348,3.55250163 22.5376257,4.10248829 23.3175,4.9275 C23.94,5.5425 24.3375,6.4275 24.4725,8.2425 C24.7818625,8.26016376 25.0769152,8.37871171 25.3125,8.58 C25.5144294,8.82133709 25.5896014,9.14429799 25.515,9.45 C25.0175217,10.2992707 24.4452523,11.1024558 23.805,11.85 C24.905,12.045 25.8275,11.4225 26.5725,9.9825 C27.514908,8.02482362 27.7990412,5.81489843 27.3825,3.6825 L27.3825,3.6825 Z" id="头发" fill="url(#linearGradient-11)"></path>
                    <path d="M25.3125,13.7175 C25.7375,15.3475 25.2375,16.16 23.8125,16.155 C22.3875,16.15 20.7,15.3375 18.75,13.7175 C17.4328383,13.7056796 16.1293127,13.9848235 14.9325,14.535 C13.6253356,15.456745 12.4517465,16.5546186 11.445,17.7975 L8.55,20.91 C10.11,21.45 11.0775,21.8175 11.445,22.005 C11.9628962,22.3798955 12.3551113,22.9028489 12.57,23.505 L30.96,41.61 L33.5175,43.11 L36.7275,41.0025 C36.5875,35.0525 36.395,30.5875 36.15,27.6075 C35.7825,23.1075 35.3025,20.76 34.1175,18.405 C32.9325,16.05 30.2175,15.09 28.8675,14.5275 C27.7252856,14.0956409 26.529056,13.8230822 25.3125,13.7175 L25.3125,13.7175 Z" id="上半身" fill="url(#linearGradient-12)"></path>
                    <path d="M36.75,41.0625 C33.42,41.97 31.6425,42.24 31.44,41.55 C31.2375,40.86 30.99,37.8 30.69,32.3625 C31.33,31.3625 31.33,30.5 30.69,29.775 C30.05,29.05 28.4025,28.5825 25.7475,28.3725 C24.5675,26.8025 23.49,25.93 22.515,25.755 C21.54,25.58 20.475,26.0625 19.32,27.2025 C18.385,24.5225 16.4675,23.305 13.5675,23.55 C9.33,23.9025 7.965,39.795 7.8,40.485 C7.20942542,43.2192663 6.85809811,45.999771 6.75,48.795 C6.75,50.1975 11.46,48.4875 11.25,49.545 C10.95,51.16 12.2,52.4875 15,53.5275 L19.35,48.2325 C20.9475,48.6 22.7475,49.0425 24.7425,49.545 C27.1864451,50.293698 29.7985549,50.293698 32.2425,49.545 C34.38,48.84 34.8375,47.9475 35.5725,45.96 C36.1143909,44.3670735 36.5085526,42.7276618 36.75,41.0625 L36.75,41.0625 Z" id="下半身" fill="url(#linearGradient-13)"></path>
                    <path d="M26.9475,28.2 C26.9475,28.2 24.6225,34.455 22.74,35.2875 C20.67,36.2025 18.93,34.5375 17.9625,34.3125 C17.0537073,33.9736351 16.2110557,33.4787042 15.4725,32.85 C14.4525,32.0025 14.0325,30.6 13.38,30.6 C12.7275,30.6 13.6875,32.475 13.38,32.475 C13.0725,32.475 9.5775,30.39 9.5775,29.19 C9.5775,27.99 13.65,24.045 13.5825,23.745 C13.515,23.445 11.5725,20.8575 10.1925,21.12 C8.8125,21.3825 7.38,24.12 6.735,25.1175 C5.2875,27.3675 4.29,30.0675 4.8975,31.29 C6.2625,34.0125 19.485,38.6475 21.225,39.3 C22.965,39.9525 23.6475,40.29 25.2225,39.6225 C26.7975,38.955 28.8375,35.505 30.0375,34.0575 C30.7744671,33.2454674 31.1996557,32.1984404 31.2375,31.1025 C31.2375,29.4525 30.4875,29.145 30.015,28.8525 C29.5425,28.56 28.5,28.395 26.9475,28.2 Z" id="路径" fill="#FBDBBE"></path>
                    <path d="M10.785,49.185 C10.4625,48.87 9.4425,48.48 7.7325,48.0225 C6.99910161,48.2539012 6.32914889,48.6517658 5.775,49.185 C4.7325,50.115 3.7425,51.555 2.775,52.4775 C1.95853168,53.1826616 1.0343076,53.7523888 0.0375,54.165 C0.978306751,55.7575643 2.93982057,56.4262622 4.6575,55.74 C6.5875,55.14 8.9275,53.6225 11.6775,51.1875 C11.5496381,50.4566288 11.2430392,49.7687136 10.785,49.185 L10.785,49.185 Z" id="鞋子" fill="url(#linearGradient-14)"></path>
                    <path d="M15.0675,53.475 C14.745,53.16 13.7325,52.77 12.0225,52.305 C11.2901589,52.5424827 10.62098,52.9424516 10.065,53.475 C9.0225,54.405 8.025,55.845 7.02,56.7675 C6.20393533,57.4674781 5.28262762,58.0344367 4.29,58.4475 C5.22842557,60.0428735 7.19049141,60.7149447 8.91,60.03 C10.83,59.43 13.1675,57.9125 15.9225,55.4775 C15.8057217,54.7500738 15.5121276,54.0624455 15.0675,53.475 L15.0675,53.475 Z" id="路径" fill="url(#linearGradient-15)"></path>
                </g>
                <line x1="29.25" y1="44.25" x2="79.875" y2="27.375" id="路径" stroke="url(#linearGradient-16)" stroke-width="0.5" opacity="0.53"></line>
                <polygon id="路径" fill="url(#linearGradient-17)" fill-rule="nonzero" points="75.6825 15.75 78.75 15.75 77.52 2.865 72 4.7025"></polygon>
                <polygon id="路径" fill="url(#linearGradient-18)" fill-rule="nonzero" points="81 15.75 83.25 0 90 1.5 84 16.5"></polygon>
                <polygon id="路径" fill="url(#linearGradient-19)" fill-rule="nonzero" points="86.25 18 88.5 20.25 97.5 10.5 93.75 8.25"></polygon>
            </g>
        </g>
    </g>
</svg>