<?xml version="1.0" standalone="no"?><!DOCTYPE svg PUBLIC "-//W3C//DTD SVG 1.1//EN" "http://www.w3.org/Graphics/SVG/1.1/DTD/svg11.dtd"><svg t="1607930124270" class="icon" viewBox="0 0 1024 1024" version="1.1" xmlns="http://www.w3.org/2000/svg" p-id="2518" xmlns:xlink="http://www.w3.org/1999/xlink" width="200" height="200"><defs><style type="text/css"></style></defs><path d="M513.6 281.6c76.8 0 137.6-62.4 137.6-137.6 0-76.8-62.4-137.6-137.6-137.6-76.8 0-137.6 62.4-137.6 137.6 0 75.2 60.8 137.6 137.6 137.6z m0-204.8c36.8 0 67.2 30.4 67.2 67.2 0 36.8-30.4 67.2-67.2 67.2-36.8 0-67.2-30.4-67.2-67.2 0-38.4 30.4-67.2 67.2-67.2zM275.2 691.2c-25.6-44.8-72-68.8-120-68.8-24 0-46.4 6.4-68.8 19.2-65.6 38.4-89.6 123.2-51.2 188.8 25.6 44.8 72 68.8 120 68.8 24 0 46.4-6.4 68.8-19.2 67.2-38.4 89.6-123.2 51.2-188.8z m-86.4 126.4c-9.6 6.4-22.4 9.6-33.6 9.6-11.2 0-24-3.2-33.6-9.6-9.6-6.4-19.2-14.4-25.6-25.6-19.2-32-8-73.6 24-92.8 9.6-6.4 22.4-9.6 33.6-9.6 11.2 0 24 3.2 33.6 9.6 9.6 6.4 19.2 14.4 25.6 25.6 20.8 33.6 9.6 75.2-24 92.8z m748.8-176c-22.4-12.8-44.8-19.2-68.8-19.2-48 0-94.4 24-120 68.8-38.4 65.6-16 150.4 51.2 188.8 22.4 12.8 44.8 19.2 68.8 19.2 48 0 94.4-24 120-68.8 36.8-65.6 14.4-150.4-51.2-188.8z m-11.2 153.6c-6.4 11.2-14.4 19.2-25.6 25.6-9.6 6.4-22.4 9.6-33.6 9.6-11.2 0-22.4-3.2-33.6-9.6-32-19.2-43.2-60.8-24-92.8 6.4-11.2 14.4-19.2 25.6-25.6 9.6-6.4 22.4-9.6 33.6-9.6 11.2 0 24 3.2 33.6 9.6 32 19.2 43.2 60.8 24 92.8z m-240-579.2c124.8 65.6 203.2 193.6 203.2 334.4v24c-1.6 19.2 12.8 36.8 33.6 36.8h1.6c19.2 0 33.6-14.4 35.2-33.6 0-9.6 1.6-19.2 1.6-28.8 0-83.2-22.4-164.8-67.2-235.2-43.2-68.8-102.4-124.8-174.4-161.6-17.6-9.6-38.4-1.6-48 14.4-9.6 19.2-3.2 40 14.4 49.6zM100.8 609.6h1.6c20.8-1.6 35.2-17.6 33.6-36.8v-22.4c0-142.4 78.4-270.4 204.8-336 17.6-9.6 24-30.4 16-48-9.6-17.6-30.4-24-48-16-72 36.8-132.8 92.8-176 161.6-44.8 72-67.2 153.6-67.2 236.8V576c1.6 19.2 17.6 33.6 35.2 33.6z m612.8 259.2c-59.2 38.4-129.6 57.6-200 57.6-72 0-142.4-20.8-201.6-59.2-16-11.2-38.4-6.4-49.6 11.2-11.2 16-6.4 38.4 11.2 49.6 72 46.4 155.2 70.4 240 70.4 84.8 0 166.4-24 238.4-68.8 16-9.6 20.8-32 11.2-48-11.2-17.6-33.6-24-49.6-12.8z m0 0" p-id="2519"></path></svg>