<?xml version="1.0" standalone="no"?><!DOCTYPE svg PUBLIC "-//W3C//DTD SVG 1.1//EN" "http://www.w3.org/Graphics/SVG/1.1/DTD/svg11.dtd"><svg t="1612229515429" class="icon" viewBox="0 0 1024 1024" version="1.1" xmlns="http://www.w3.org/2000/svg" p-id="1380" xmlns:xlink="http://www.w3.org/1999/xlink" width="200" height="200"><defs><style type="text/css"></style></defs><path d="M88.333326 566.428633c16.406668-38.789445 39.885406-73.616648 69.781296-103.514585 29.897937-29.896914 64.726164-53.375651 103.514585-69.781296 40.184211-16.996093 82.841753-25.614377 126.791732-25.614377h420.949284L580.296991 138.442072h-0.001024c-17.398252-17.398252-17.398252-45.604664 0.001024-63.002916 17.398252-17.398252 45.603641-17.399275 63.002916-0.001023l0.001023 0.001023L948.329065 380.468314l-0.068562 0.069585c8.043187 8.04421 13.019525 19.157315 13.019525 31.431873s-4.975315 23.388686-13.020548 31.431874l0.069585 0.069585L643.30093 748.500389h-0.001023c-17.398252 17.398252-45.604664 17.398252-63.002916 0-17.399275-17.398252-17.399275-45.604664-0.001024-63.002916l0.010233-0.010233 229.06607-229.06607H388.421962c-130.571824 0-236.799194 106.22737-236.799194 236.799195v223.938281c0 24.551162-19.901259 44.451398-44.450375 44.451398-24.550139 0-44.452421-19.900236-44.452421-44.451398V693.220365c-0.001023-43.949978 8.618285-86.609567 25.613354-126.791732z" fill="" p-id="1381"></path></svg>