<?xml version="1.0" standalone="no"?><!DOCTYPE svg PUBLIC "-//W3C//DTD SVG 1.1//EN" "http://www.w3.org/Graphics/SVG/1.1/DTD/svg11.dtd"><svg t="1612229536006" class="icon" viewBox="0 0 1024 1024" version="1.1" xmlns="http://www.w3.org/2000/svg" p-id="1524" xmlns:xlink="http://www.w3.org/1999/xlink" width="200" height="200"><defs><style type="text/css"></style></defs><path d="M930.142867 565.296857c-16.406668-38.790468-39.885406-73.616648-69.781296-103.515609-29.897937-29.896914-64.726164-53.375651-103.514585-69.781296-40.184211-16.996093-82.841753-25.614377-126.791731-25.614377H209.104947L438.180226 137.310296c17.398252-17.398252 17.398252-45.604664 0-63.002916-17.398252-17.398252-45.604664-17.399275-63.002916-0.001024l-0.001024 0.001024L70.147128 379.336538l0.069585 0.069585c-8.04421 8.04421-13.019525 19.157315-13.019525 31.431873s4.975315 23.388686 13.019525 31.431873l-0.069585 0.069585 305.029158 305.029158 0.001024 0.001023c17.398252 17.397229 45.604664 17.397229 63.002916-0.001023 17.398252-17.397229 17.399275-45.603641 0-63.002916l-0.010233-0.010233-229.065046-229.066069h420.949284c130.571824 0 236.799194 106.22737 236.799194 236.799194v223.938282c0 24.550139 19.901259 44.450375 44.450375 44.450374 24.550139 0 44.452421-19.900236 44.452421-44.450374V692.088588c0.001023-43.949978-8.618285-86.609567-25.613354-126.791731z" fill="" p-id="1525"></path></svg>