<?xml version="1.0" standalone="no"?><!DOCTYPE svg PUBLIC "-//W3C//DTD SVG 1.1//EN" "http://www.w3.org/Graphics/SVG/1.1/DTD/svg11.dtd"><svg t="1607930114412" class="icon" viewBox="0 0 1024 1024" version="1.1" xmlns="http://www.w3.org/2000/svg" p-id="3349" xmlns:xlink="http://www.w3.org/1999/xlink" width="200" height="200"><defs><style type="text/css"></style></defs><path d="M994.731 582.367l-434.465 208.55c-41.578 19.391-58.154 19.391-96.532 0L29.27 582.367C6.187 569.289 0 520.885 0 494.475c29.013 17.685 69.801 37.397 68.265 36.351L511.99 749.382l443.724-218.556c0.79-0.17 40.362-21.44 68.266-36.415 0 27.093-7.85 77.268-29.248 87.913v0.043z m0-218.556L560.266 572.425c-41.578 19.328-58.154 19.328-96.532 0L29.27 363.875c-34.112-19.392-33.066-80.254 0-103.016L463.713 15.808c38.4-20.48 62.441-21.632 96.531 0l434.466 245.05c33.087 19.307 31.978 87.081 0.021 102.953zM511.99 57.407L68.265 312.377 511.99 512.053l443.724-199.718L511.99 57.407z m0 910.488l443.724-218.513c0.79-0.214 40.362-21.525 68.266-36.458 0 27.071-7.85 77.225-29.248 87.891L560.266 1009.43c-41.578 19.37-58.154 19.37-96.532 0L29.27 800.88C6.187 787.76 0 739.376 0 712.965c29.013 17.685 69.801 37.397 68.265 36.416L511.99 967.895z" p-id="3350"></path></svg>