<?xml version="1.0" standalone="no"?><!DOCTYPE svg PUBLIC "-//W3C//DTD SVG 1.1//EN" "http://www.w3.org/Graphics/SVG/1.1/DTD/svg11.dtd"><svg t="1608874463855" class="icon" viewBox="0 0 1024 1024" version="1.1" xmlns="http://www.w3.org/2000/svg" p-id="1870" xmlns:xlink="http://www.w3.org/1999/xlink" width="200" height="200"><defs><style type="text/css"></style></defs><path d="M950.81472 129.536l-56.46336-56.5248a92.16 92.16 0 0 0-130.29376 0l-131.072 131.1744-63.35488-63.3856L444.29312 266.24l52.224 52.224-357.84704 357.9904a131.44064 131.44064 0 0 0-38.3488 85.8112l-20.8384 20.7872A114.21696 114.21696 0 0 0 240.9472 944.64l20.81792-20.8896a130.64192 130.64192 0 0 0 85.85216-38.2976l357.84704-357.9904 52.224 52.224 125.34784-125.3376-63.34464-63.3856 131.072-131.072a92.16 92.16 0 0 0 0.0512-130.3552zM289.7408 827.4944a49.84832 49.84832 0 0 1-57.088 9.6256l-49.57184 49.5616a32.3072 32.3072 0 0 1-45.71136-45.6704l49.55136-49.664a49.87904 49.87904 0 0 1 9.60512-57.0368l357.84704-357.9904 93.184 93.2864z" p-id="1871"></path></svg>