<?xml version="1.0" standalone="no"?><!DOCTYPE svg PUBLIC "-//W3C//DTD SVG 1.1//EN" "http://www.w3.org/Graphics/SVG/1.1/DTD/svg11.dtd"><svg t="1612229956140" class="icon" viewBox="0 0 1024 1024" version="1.1" xmlns="http://www.w3.org/2000/svg" p-id="2436" xmlns:xlink="http://www.w3.org/1999/xlink" width="200" height="200"><defs><style type="text/css"></style></defs><path d="M64 96v832h896v-832H64z m608 208H896V448h-224V304z m-320 560H128v-147.2h224v147.2z m0-211.2H128V512h224v140.8z m0-204.8H128V304h224V448z m256 416h-192v-147.2h192v147.2z m0-211.2h-192V512h192v140.8z m0-204.8h-192V304h192V448z m288 416h-224v-147.2H896v147.2z m0-211.2h-224V512H896v140.8z" p-id="2437" fill="#4A90E2"></path></svg>