<?xml version="1.0" standalone="no"?><!DOCTYPE svg PUBLIC "-//W3C//DTD SVG 1.1//EN" "http://www.w3.org/Graphics/SVG/1.1/DTD/svg11.dtd"><svg t="1609305204965" class="icon" viewBox="0 0 1024 1024" version="1.1" xmlns="http://www.w3.org/2000/svg" p-id="1982" xmlns:xlink="http://www.w3.org/1999/xlink" width="200" height="200"><defs><style type="text/css"></style></defs><path d="M469.333333 85.333333C516.266667 85.333333 554.666667 123.733333 554.666667 170.666667L554.666667 853.333333C554.666667 900.266667 516.266667 938.666667 469.333333 938.666667L85.333333 938.666667 85.333333 85.333333 469.333333 85.333333M170.666667 426.666667 170.666667 597.333333 469.333333 597.333333 469.333333 426.666667 170.666667 426.666667M170.666667 682.666667 170.666667 853.333333 469.333333 853.333333 469.333333 682.666667 170.666667 682.666667M170.666667 170.666667 170.666667 341.333333 469.333333 341.333333 469.333333 170.666667 170.666667 170.666667M640 469.333333 768 469.333333 768 341.333333 853.333333 341.333333 853.333333 469.333333 981.333333 469.333333 981.333333 554.666667 853.333333 554.666667 853.333333 682.666667 768 682.666667 768 554.666667 640 554.666667 640 469.333333Z" p-id="1983"></path></svg>