<?xml version="1.0" standalone="no"?><!DOCTYPE svg PUBLIC "-//W3C//DTD SVG 1.1//EN" "http://www.w3.org/Graphics/SVG/1.1/DTD/svg11.dtd"><svg t="1617871429893" class="icon" viewBox="0 0 1024 1024" version="1.1" xmlns="http://www.w3.org/2000/svg" p-id="3295" xmlns:xlink="http://www.w3.org/1999/xlink" width="200" height="200"><defs><style type="text/css"></style></defs><path d="M512 512m-385.7322666666667 0a385.7322666666667 385.7322666666667 0 1 0 771.4645333333334 0 385.7322666666667 385.7322666666667 0 1 0-771.4645333333334 0Z" fill="#757F09" p-id="3296"></path><path d="M680.2176 464c-18.167466666666666 24.661333333333335-45.11573333333333 48.9984-75.4944 45.013333333333335-8.209066666666667 11.4688-17.390933333333333 27.468799999999998-27.571199999999997 46.0544l-23.552 7.381333333333333c19.925333333333334-38.818133333333336 46.55786666666667-81.75786666666666 75.09333333333333-114.3808-12.356266666666667 8.046933333333333-32.68266666666667 25.335466666666665-50.34666666666667 43.56266666666667-15.9488-33.245866666666664 0.8704-64.04266666666666 25.216-87.55199999999999-0.6997333333333333 11.076266666666667 4.2325333333333335 21.1712 7.927466666666667 26.376533333333334-0.6314666666666666-9.2672 0.4437333333333333-25.813333333333333 7.210666666666667-40.15786666666667 13.568-11.426133333333333 25.59146666666667-19.652266666666666 39.28746666666667-26.845866666666666-2.2357333333333336 8.098133333333333-0.3328 17.809066666666666 2.2784 23.867733333333334 1.1861333333333335-8.388266666666667 6.1866666666666665-24.260266666666666 11.972266666666666-30.822400000000002 17.08373333333333-11.025066666666667 42.410666666666664-19.84 69.4272-19.379199999999997-2.9610666666666665 16.6144-11.707733333333334 43.605333333333334-23.50933333333333 60.35626666666667-9.540266666666668 6.118399999999999-22.152533333333334 9.7024-32.1792 11.4176 8.311466666666666 2.3296 17.621333333333332 3.0122666666666666 25.736533333333334 2.414933333333333a307.51573333333334 307.51573333333334 0 0 1-20.906666666666666 37.5552c-12.475733333333332 6.954666666666666-28.424533333333333 10.018133333333333-39.3216 10.589866666666667 7.620266666666667 4.002133333333333 21.49546666666667 6.3232 28.731733333333334 4.548266666666667z m-39.50933333333333 150.8352c-0.7509333333333332 0.512-171.33226666666667 108.1344-171.33226666666667 108.1344l-0.017066666666666667-0.034133333333333335c-26.572799999999997 15.8464-58.22293333333334 9.514666666666667-77.72160000000001-9.984-28.185599999999997-28.185599999999997-23.261866666666666-75.96373333333332 10.726399999999998-97.97973333333333l19.49866666666667 25.01973333333333c-29.567999999999998 15.752533333333334-18.107733333333332 60.38186666666666 15.018666666666666 60.38186666666666 26.3424 0 41.45493333333333-30.199466666666666 25.625600000000002-51.251200000000004 0 0-106.04373333333332-135.6288-132.48853333333332-168.87466666666666-27.554133333333333-34.645333333333326-17.59573333333333-81.09226666666666 20.3008-99.2512l149.62346666666664-76.50986666666665a60.35626666666667 60.35626666666667 0 0 1 60.2624 103.76533333333333l-147.8656 83.54986666666667-19.524266666666666-25.1648c29.5424-15.786666666666667 18.0224-60.34773333333333-15.061333333333332-60.34773333333333-22.43413333333333 0-44.458666666666666 27.042133333333332-22.954666666666665 54.54506666666667C380.59520000000003 493.82399999999996 485.5040000000001 627.4133333333334 485.5040000000001 627.4133333333334a63.14666666666667 63.14666666666667 0 0 1 14.882133333333334 38.74986666666667s104.76373333333332-66.01386666666666 120.90026666666665-76.3648c16.648533333333333-10.683733333333333 19.7376-30.882133333333336 7.492266666666667-45.132799999999996l-7.808-9.6c10.8288-1.3141333333333334 21.512533333333334-4.881066666666666 31.9744-10.615466666666666 26.88853333333333 32.913066666666666 14.472533333333333 72.86613333333332-12.236799999999999 90.38506666666667zM411.9893333333334 384.80213333333336a63.44533333333333 63.44533333333333 0 0 1 29.277866666666668 55.0912l97.42506666666667-55.193599999999996c15.2576-8.7296 17.732266666666664-26.01813333333333 11.118933333333333-38.66453333333333-7.662933333333333-14.685866666666668-24.6784-18.551466666666666-37.529599999999995-12.561066666666667l-100.29226666666666 51.327999999999996z m108.0064 187.81866666666667c4.6848-9.233066666666668 12.765866666666666-25.301333333333332 20.590933333333332-40.25173333333333l-65.16906666666667 38.18666666666666 14.404266666666667 19.763199999999998 30.173866666666665-17.69813333333333z m-74.7264-41.83893333333333l14.4128 19.763199999999998 95.1296-55.748266666666666-15.0016-19.39626666666667-94.5408 55.38133333333334z" fill="#353535" p-id="3297"></path><path d="M680.2176 455.04853333333335c-18.167466666666666 24.661333333333335-45.11573333333333 49.006933333333336-75.4944 45.02186666666667-8.209066666666667 11.4688-17.390933333333333 27.460266666666666-27.571199999999997 46.06293333333333l-23.552 7.3642666666666665c19.925333333333334-38.8096 46.55786666666667-81.74933333333334 75.09333333333333-114.37226666666668-12.356266666666667 8.0384-32.68266666666667 25.326933333333333-50.34666666666667 43.55413333333333-15.9488-33.245866666666664 0.8704-64.04266666666666 25.216-87.55199999999999-0.6997333333333333 11.076266666666667 4.2325333333333335 21.1712 7.927466666666667 26.376533333333334-0.6314666666666666-9.2672 0.4437333333333333-25.813333333333333 7.210666666666667-40.15786666666667 13.568-11.426133333333333 25.59146666666667-19.652266666666666 39.28746666666667-26.845866666666666-2.2357333333333336 8.098133333333333-0.3328 17.809066666666666 2.2784 23.867733333333334 1.1861333333333335-8.396799999999999 6.1866666666666665-24.260266666666666 11.972266666666666-30.830933333333334 17.08373333333333-11.025066666666667 42.410666666666664-19.831466666666664 69.4272-19.370666666666665-2.9610666666666665 16.6144-11.707733333333334 43.605333333333334-23.50933333333333 60.34773333333333-9.540266666666668 6.126933333333333-22.152533333333334 9.7024-32.1792 11.426133333333333a77.6704 77.6704 0 0 0 25.736533333333334 2.414933333333333 307.51573333333334 307.51573333333334 0 0 1-20.906666666666666 37.5552c-12.475733333333332 6.946133333333333-28.424533333333333 10.0096-39.3216 10.589866666666667 7.620266666666667 4.002133333333333 21.49546666666667 6.331733333333333 28.731733333333334 4.548266666666667z m-39.50933333333333 150.8352c-0.7509333333333332 0.5205333333333333-171.33226666666667 108.15146666666666-171.33226666666667 108.15146666666666l-0.017066666666666667-0.034133333333333335c-26.572799999999997 15.829333333333333-58.22293333333334 9.4976-77.72160000000001-9.984-28.185599999999997-28.20266666666667-23.261866666666666-75.96373333333332 10.726399999999998-97.9968l19.49866666666667 25.01973333333333c-29.567999999999998 15.752533333333334-18.107733333333332 60.39893333333333 15.018666666666666 60.39893333333333 26.3424 0 41.45493333333333-30.199466666666666 25.625600000000002-51.26826666666667 0 0-106.04373333333332-135.6288-132.48853333333332-168.86613333333335-27.554133333333333-34.645333333333326-17.59573333333333-81.09226666666666 20.3008-99.2512l149.62346666666664-76.50986666666665a60.35626666666667 60.35626666666667 0 0 1 60.2624 103.76533333333333l-147.8656 83.54986666666667-19.524266666666666-25.1648c29.5424-15.778133333333333 18.0224-60.34773333333333-15.061333333333332-60.34773333333333-22.43413333333333 0-44.458666666666666 27.0336-22.954666666666665 54.53653333333333 25.8048 33.00693333333333 130.71359999999999 166.58773333333332 130.71359999999999 166.58773333333332a63.1808 63.1808 0 0 1 14.882133333333334 38.74986666666667s104.76373333333332-65.9968 120.90026666666665-76.34773333333332c16.648533333333333-10.7008 19.7376-30.882133333333336 7.492266666666667-45.14986666666667-0.042666666666666665-0.034133333333333335-3.0208-3.6864-7.808-9.582933333333333 10.8288-1.3312 21.512533333333334-4.898133333333333 31.9744-10.632533333333333 26.88 32.913066666666666 14.464 72.87466666666666-12.245333333333333 90.37653333333333zM411.9893333333334 375.8592a63.4368 63.4368 0 0 1 29.277866666666668 55.0912l97.42506666666667-55.193599999999996c15.2576-8.7296 17.732266666666664-26.026666666666664 11.118933333333333-38.673066666666664-7.662933333333333-14.685866666666668-24.6784-18.551466666666666-37.529599999999995-12.561066666666667l-100.29226666666666 51.336533333333335z m108.0064 187.81013333333334c4.6848-9.233066666666668 12.765866666666666-25.301333333333332 20.590933333333332-40.2688l-65.16906666666667 38.20373333333333 14.404266666666667 19.763199999999998 30.173866666666665-17.69813333333333z m-74.7264-41.821866666666665l14.4128 19.746133333333333 95.1296-55.739733333333334-15.0016-19.39626666666667-94.5408 55.38986666666666z" fill="#FFFFFF" p-id="3298"></path></svg>