<svg t="1608870310615" class="icon" viewBox="0 0 1024 1024" version="1.1" xmlns="http://www.w3.org/2000/svg" p-id="2354" width="200" height="200"><path d="M998.4 313.6l-460.8-288c-6.4-6.4-19.2-6.4-25.6-6.4s-19.2 0-25.6 6.4l-460.8 288c-12.8 6.4-12.8 25.6 0 32l460.8 288c6.4 6.4 19.2 6.4 25.6 6.4s19.2 0 25.6-6.4l460.8-288c12.8-6.4 12.8-19.2 0-32z m-486.4 262.4l-390.4-243.2 390.4-243.2 390.4 243.2-390.4 243.2z" p-id="2355"></path><path d="M851.2 486.4l-51.2 32 57.6 32-345.6 211.2-345.6-211.2 57.6-32-51.2-32-83.2 51.2c-12.8 6.4-12.8 25.6 0 32l396.8 249.6c19.2 12.8 38.4 12.8 51.2 0l396.8-249.6c12.8-6.4 12.8-25.6 0-32l-83.2-51.2z" p-id="2356"></path><path d="M748.8 742.4l38.4 25.6-275.2 172.8-275.2-172.8 38.4-25.6-57.6-38.4-102.4 64 371.2 230.4c19.2 12.8 38.4 12.8 51.2 0l371.2-230.4-102.4-64-57.6 38.4z" p-id="2357"></path></svg>