<?xml version="1.0" standalone="no"?><!DOCTYPE svg PUBLIC "-//W3C//DTD SVG 1.1//EN" "http://www.w3.org/Graphics/SVG/1.1/DTD/svg11.dtd"><svg t="1609747622724" class="icon" viewBox="0 0 1024 1024" version="1.1" xmlns="http://www.w3.org/2000/svg" p-id="3381" xmlns:xlink="http://www.w3.org/1999/xlink" width="200" height="200"><defs><style type="text/css"></style></defs><path d="M893.080181 585.210149h-86.234525v-37.615932h79.557697a57.552376 57.552376 0 0 0 1.786757-115.104753l-20.500683-0.658279 2.445035-20.312603a153.473004 153.473004 0 0 0 1.034439-17.679488A148.300813 148.300813 0 0 0 723.056167 245.72636a151.310088 151.310088 0 0 0-39.966928 5.64239l-20.782803 5.64239-3.009274-21.347042A225.695594 225.695594 0 0 0 209.222531 266.415123v18.807966l-16.739089 1.880797a130.715365 130.715365 0 0 0 14.952333 260.490331v37.615932a168.331297 168.331297 0 0 1-35.547056-332.806961 263.311526 263.311526 0 0 1 521.074702-41.753685 181.120714 181.120714 0 0 1 29.998706-2.539075 185.916746 185.916746 0 0 1 185.822706 185.728666v3.573513a95.168309 95.168309 0 0 1-15.704652 187.515423z" fill="#282D33" p-id="3382"></path><path d="M399.371069 341.646988H329.875634a74.573586 74.573586 0 0 0-74.291466 73.257028v478.944858-18.807966 14.576174a74.573586 74.573586 0 0 1 74.573586-74.479546h431.454744V341.646988H399.371069z" fill="#FFFFFF" p-id="3383"></path><path d="M255.584168 908.519088h-18.807966V414.715936A94.039831 94.039831 0 0 1 329.875634 322.839021h69.495435v37.615933H329.875634a56.423898 56.423898 0 0 0-55.4835 54.825221v399.481201a93.381552 93.381552 0 0 1 55.76562-18.807966h412.646778V360.454954H506.012238v-37.615933h274.408226v511.106481H329.875634a55.85966 55.85966 0 0 0-55.4835 52.568265v7.523187h-0.940398a18.807966 18.807966 0 0 1-17.867568 14.482134z" fill="#282D33" p-id="3384"></path><path d="M369.654483 392.804655H710.736949v371.363292H369.654483z" fill="#F8C44F" p-id="3385"></path><path d="M761.612498 815.137536H329.875634a74.573586 74.573586 0 1 0 0 149.053132h431.736864z" fill="#FFFFFF" p-id="3386"></path><path d="M780.420464 982.998634H329.875634a93.381552 93.381552 0 1 1 0-186.669064h450.54483zM329.875634 833.945502a55.76562 55.76562 0 1 0 0 111.437199h412.928898V833.945502z" fill="#282D33" p-id="3387"></path><path d="M475.073133 1024l-54.072903-34.230498-54.072902 34.230498v-127.89417h108.145805v127.89417z" fill="#34CA9D" p-id="3388"></path><path d="M324.327284 893.942914z" fill="#FFFFFF" p-id="3389"></path><path d="M324.327284 875.134948h437.285214v37.615932h-437.285214z" fill="#282D33" p-id="3390"></path><path d="M324.327284 810.529584z" fill="#FFFFFF" p-id="3391"></path><path d="M305.519318 349.076134h37.615933v461.45345h-37.615933zM520.494371 257.857498L453.067813 190.524979l-67.332519 67.332519-26.613272-26.613272L453.067813 137.392475l94.039831 93.851751-26.613273 26.613272z" fill="#282D33" p-id="3392"></path><path d="M436.422763 189.302462h37.615932v248.829392h-37.615932zM559.803021 694.390393l-94.039831-93.851751 26.613272-26.613272 67.426559 67.332519 67.426558-67.332519 26.519233 26.613272-93.945791 93.851751z" fill="#282D33" p-id="3393"></path><path d="M538.832138 393.556974h37.615933v248.829393h-37.615933z" fill="#282D33" p-id="3394"></path></svg>