<?xml version="1.0" standalone="no"?><!DOCTYPE svg PUBLIC "-//W3C//DTD SVG 1.1//EN" "http://www.w3.org/Graphics/SVG/1.1/DTD/svg11.dtd"><svg t="1627293082731" class="icon" viewBox="0 0 1024 1024" version="1.1" xmlns="http://www.w3.org/2000/svg" p-id="3251" xmlns:xlink="http://www.w3.org/1999/xlink" width="200" height="200"><defs><style type="text/css">@font-face { font-family: feedback-iconfont; src: url("//at.alicdn.com/t/font_1031158_1uhr8ri0pk5.eot?#iefix") format("embedded-opentype"), url("//at.alicdn.com/t/font_1031158_1uhr8ri0pk5.woff2") format("woff2"), url("//at.alicdn.com/t/font_1031158_1uhr8ri0pk5.woff") format("woff"), url("//at.alicdn.com/t/font_1031158_1uhr8ri0pk5.ttf") format("truetype"), url("//at.alicdn.com/t/font_1031158_1uhr8ri0pk5.svg#iconfont") format("svg"); }
</style></defs><path d="M984.116364 945.728c-0.232727-63.639273-12.846545-125.341091-37.504-183.412364a473.245091 473.245091 0 0 0-101.701819-150.452363c-43.52-43.403636-94.208-77.614545-150.574545-101.364364a482.647273 482.647273 0 0 0-48.861091-17.611636 266.426182 266.426182 0 0 0 51.706182-40.343273c50.001455-50.001455 77.614545-116.48 77.614545-187.269818 0-70.685091-27.502545-137.274182-77.614545-187.275637C647.179636 27.997091 580.701091 0.384 509.911273 0.384c-70.685091 0-137.274182 27.502545-187.275637 77.614545-50.001455 50.001455-77.614545 116.48-77.614545 187.275637 0 70.679273 27.502545 137.268364 77.614545 187.269818a265.460364 265.460364 0 0 0 51.706182 40.343273 447.778909 447.778909 0 0 0-48.866909 17.611636 473.995636 473.995636 0 0 0-150.568727 101.364364 473.245091 473.245091 0 0 0-101.701818 150.458182c-24.657455 58.181818-37.271273 119.883636-37.498182 183.51709v48.64c0 15.68 11.618909 28.032 27.298909 28.032h891.479273c15.68 0 29.515636-12.352 29.515636-28.032v-47.726545c0.116364-0.453818 0.116364-0.686545 0.116364-1.024zM301.952 265.274182c0-114.658909 93.300364-207.953455 207.959273-207.953455s207.953455 93.294545 207.953454 207.953455c0 114.658909-93.294545 207.953455-207.953454 207.953454-114.658909 0-207.959273-93.294545-207.959273-207.953454zM92.520727 1022.405818V946.635636c0.453818-229.771636 187.613091-416.587636 417.390546-416.587636 229.771636 0 416.930909 186.926545 417.384727 416.587636v75.770182H92.520727z" fill="#606266" p-id="3252"></path><path d="M538.315636 595.84h-56.814545l-52.16 207.389091c-1.704727 6.702545-0.232727 14.091636 3.863273 19.083636l65.797818 81.256728c6.021818 7.499636 15.906909 7.499636 21.934545 0l65.792-81.25091c4.090182-5.003636 5.451636-12.276364 3.863273-19.089454l-52.276364-207.389091z m56.820364-420.450909l-113.634909 113.629091-56.820364-56.814546a28.392727 28.392727 0 0 0-40.226909 0 28.392727 28.392727 0 0 0 0 40.226909l76.933818 76.933819a28.293818 28.293818 0 0 0 20.113455 8.296727c7.272727 0 14.545455-2.734545 20.113454-8.296727l133.748364-133.748364a28.392727 28.392727 0 0 0 0-40.226909 28.392727 28.392727 0 0 0-40.226909 0z" fill="#606266" p-id="3253"></path></svg>