<?xml version="1.0" standalone="no"?><!DOCTYPE svg PUBLIC "-//W3C//DTD SVG 1.1//EN" "http://www.w3.org/Graphics/SVG/1.1/DTD/svg11.dtd"><svg t="1609124853348" class="icon" viewBox="0 0 1024 1024" version="1.1" xmlns="http://www.w3.org/2000/svg" p-id="2123" xmlns:xlink="http://www.w3.org/1999/xlink" width="200" height="200"><defs><style type="text/css"></style></defs><path d="M529.344 327.552h166.176v70.432c10.048 9.92 23.456 9.92 33.536 0l127.392-82.72c10.08-6.624 10.08-19.84 0-29.76l-127.392-86.08c-10.08-9.92-23.488-9.92-33.536 0v61.92h-199.712l-134.112 231.68H227.584v0.192H193.536c-16.768 0-33.536 16.544-33.536 33.088s16.768 33.088 33.536 33.088h201.184l-0.128-0.224h0.64l134.08-231.616z m199.68 298.464c-10.048-9.92-23.456-9.92-33.504 0v65.536h-99.136l-100.576-165.44-33.536 66.144s93.888 155.52 100.576 165.44h132.672v66.88c10.048 9.92 23.456 9.92 33.504 0l127.424-82.752c10.048-6.624 10.048-19.84 0-29.76l-127.392-86.08z" fill="#333333" p-id="2124"></path></svg>