<?xml version="1.0" standalone="no"?><!DOCTYPE svg PUBLIC "-//W3C//DTD SVG 1.1//EN" "http://www.w3.org/Graphics/SVG/1.1/DTD/svg11.dtd"><svg t="1609219340550" class="icon" viewBox="0 0 1024 1024" version="1.1" xmlns="http://www.w3.org/2000/svg" p-id="3952" xmlns:xlink="http://www.w3.org/1999/xlink" width="200" height="200"><defs><style type="text/css"></style></defs><path d="M512.77824 993.75104L352.256 751.5136A375.808 375.808 0 0 1 136.56064 411.66848C136.54016 204.63616 304.96768 36.20864 512 36.20864c207.01184 0 375.43936 168.42752 375.43936 375.45984 0 151.08096-88.63744 285.32736-226.69312 344.82176l-147.968 237.2608zM512 97.64864c-173.1584 0-314.01984 140.86144-314.01984 314.01984a314.34752 314.34752 0 0 0 187.41248 287.45728l8.23296 3.62496 117.59616 177.41824 107.9296-173.056 9.33888-3.72736a312.70912 312.70912 0 0 0 197.5296-291.71712C825.99936 238.51008 685.13792 97.64864 512 97.64864z" p-id="3953"></path><path d="M380.55936 294.74816h43.95008V562.3808h-43.95008V294.74816z" p-id="3954"></path><path d="M434.74944 572.6208h-64.43008V284.50816h64.43008V572.6208z m-43.95008-20.48h23.47008V304.98816h-23.47008V552.1408z" p-id="3955"></path><path d="M604.22144 458.9568h-72.41728v103.424h-45.21984V293.45792h120.23808c58.61376 2.58048 90.05056 29.73696 94.37184 81.44896-0.88064 55.17312-33.21856 83.18976-96.9728 84.04992z m-3.8912-125.41952h-68.54656v86.60992h68.54656c37.04832 0 55.6032-15.07328 55.6032-45.24032-1.7408-26.70592-20.2752-40.50944-55.6032-41.3696z" p-id="3956"></path><path d="M542.04416 572.6208h-65.69984V283.21792h130.47808c80.54784 3.54304 101.2736 51.34336 104.57088 90.84928-0.6144 43.29472-19.72224 93.96224-107.02848 95.1296h-62.32064v103.424z m-45.24032-20.48h24.73984v-103.424h82.65728c58.34752-0.77824 85.93408-24.28928 86.71232-73.95328-3.87072-45.79328-30.76096-68.68992-84.60288-71.0656h-109.52704V552.1408z m103.5264-121.73312h-78.78656v-107.08992h78.78656c51.77344 1.26976 64.34816 28.40576 65.82272 50.93376 0.02048 21.38112-8.54016 56.15616-65.82272 56.15616z m-58.28608-20.48h58.30656c40.20224 0 45.3632-18.71872 45.3632-35.00032-0.83968-12.53376-6.49216-30.18752-45.60896-31.1296h-58.0608v66.12992z" p-id="3957"></path></svg>