<?xml version="1.0" standalone="no"?><!DOCTYPE svg PUBLIC "-//W3C//DTD SVG 1.1//EN" "http://www.w3.org/Graphics/SVG/1.1/DTD/svg11.dtd"><svg t="1609926974878" class="icon" viewBox="0 0 1024 1024" version="1.1" xmlns="http://www.w3.org/2000/svg" p-id="7635" xmlns:xlink="http://www.w3.org/1999/xlink" width="200" height="200"><defs><style type="text/css"></style></defs><path d="M336.6 455.9V340.2H716c40.2 0 75.1 25.5 92.6 62.7 13.1-20.8 20.7-46.1 20.7-73.6 0-70.5-51-127.6-114-127.6H336.6V85.6c0-17.1-17.2-27-29.6-17.2L72.7 253.6c-10.7 8.4-10.7 26 0 34.4L307 472.9c12.4 10 29.6 0 29.6-17z m614.8 280l-234.3-185c-12.5-9.8-29.7 0.1-29.7 17.2v115.7H308c-40.2 0-75.1-25.5-92.6-62.6-13.1 20.8-20.7 46.1-20.7 73.6 0 70.5 51 127.6 114 127.6h378.8v116.1c0 17.1 17.3 27 29.7 17.2l234.3-185c10.5-8.7 10.5-26.4-0.1-34.8z" p-id="7636"></path></svg>