<?xml version="1.0" encoding="utf-8"?>
<!-- Generator: Adobe Illustrator 16.0.4, SVG Export Plug-In . SVG Version: 6.00 Build 0)  -->
<!DOCTYPE svg PUBLIC "-//W3C//DTD SVG 1.1//EN" "http://www.w3.org/Graphics/SVG/1.1/DTD/svg11.dtd">
<svg version="1.1" id="Layer_1" xmlns="http://www.w3.org/2000/svg" xmlns:xlink="http://www.w3.org/1999/xlink" x="0px" y="0px"
	 width="126px" height="126px" viewBox="0 0 126 126" enable-background="new 0 0 126 126" xml:space="preserve">
<path d="M98.277,34.444c-0.004-0.469-0.154-0.93-0.475-1.295L78.137,10.684c-0.006-0.006-0.012-0.008-0.016-0.014
	c-0.117-0.131-0.254-0.24-0.398-0.334c-0.043-0.029-0.086-0.053-0.131-0.078c-0.125-0.068-0.258-0.125-0.395-0.166
	c-0.037-0.01-0.07-0.025-0.107-0.035C76.941,10.022,76.787,10,76.631,10H28.299c-2.207,0-4,1.795-4,4v94c0,2.205,1.793,4,4,4h66
	c2.205,0,4-1.795,4-4V34.667C98.299,34.592,98.287,34.518,98.277,34.444z M48.086,106.508c-1.285,0-2.973-0.219-4.074-0.586
	l0.625-4.514c0.77,0.258,1.76,0.441,2.861,0.441c2.348,0,3.814-1.066,3.814-4.918V81.377h5.578v15.629h0.001
	C56.891,104.051,53.516,106.508,48.086,106.508z M67.604,106.471c-2.824,0-5.61-0.734-7.005-1.504l1.137-4.623
	c1.504,0.771,3.816,1.541,6.201,1.541c2.568,0,3.924-1.062,3.924-2.678c0-1.541-1.174-2.422-4.145-3.484
	c-4.109-1.432-6.787-3.705-6.787-7.301c0-4.219,3.521-7.447,9.354-7.447c2.788,0,4.844,0.586,6.311,1.248l-1.245,4.512
	c-0.992-0.477-2.752-1.174-5.175-1.174c-2.42,0-3.596,1.103-3.596,2.385c0,1.576,1.396,2.275,4.588,3.484
	c4.364,1.615,6.42,3.889,6.42,7.373C77.584,102.949,74.391,106.471,67.604,106.471z M94.299,77.916h-66V14h46.332v20.465
	c0,1.105,0.896,2,2,2h17.668V77.916z M76.52,52.74c0.461,0.956,0.665,1.923,0.665,3.16c0,1.938-0.61,3.483-1.849,4.678
	c-1.163,1.129-2.665,1.793-4.667,2.075c-0.797,0.109-2.357,0.114-3.189,0c-3.181-0.426-5.535-1.912-7.041-4.449
	c-0.193-0.316-0.232-0.42-0.183-0.465c0.079-0.074,3.85-2.249,3.895-2.249c0.02,0,0.163,0.188,0.322,0.416
	c1.159,1.714,2.601,2.507,4.532,2.507c1.145,0,2.066-0.312,2.65-0.902c0.174-0.173,0.366-0.431,0.441-0.584
	c0.381-0.793,0.213-1.828-0.392-2.477c-0.49-0.525-1.259-0.947-3.324-1.833c-1.517-0.654-2.393-1.075-3.037-1.462
	c-2.531-1.531-3.667-3.463-3.667-6.228c0-1.848,0.575-3.304,1.778-4.498c1.171-1.159,2.741-1.833,4.613-1.981
	c0.709-0.055,0.808-0.055,1.561,0.005c1.536,0.114,2.7,0.485,3.79,1.209c0.59,0.392,1.447,1.283,1.922,1.996
	c0.224,0.337,0.407,0.624,0.407,0.645c0,0.034-3.602,2.363-3.73,2.418c-0.04,0.014-0.154-0.119-0.308-0.362
	c-0.134-0.213-0.421-0.564-0.645-0.782c-0.629-0.635-1.248-0.882-2.204-0.882c-0.842-0.006-1.387,0.207-1.857,0.718
	c-0.327,0.352-0.476,0.713-0.511,1.248c-0.039,0.674,0.145,1.214,0.574,1.675c0.451,0.48,1.136,0.857,3.176,1.733
	c2.7,1.16,4.053,1.962,5.098,3.022C75.887,51.646,76.203,52.085,76.52,52.74z M55.088,38.696h2.428v8.783
	c0,5.826-0.02,8.922-0.05,9.199c-0.342,2.739-1.634,4.582-3.839,5.475c-1.838,0.737-4.345,0.798-6.297,0.148
	c-1.847-0.615-3.383-1.952-4.27-3.721l-0.149-0.297l1.957-1.189c1.075-0.648,1.972-1.188,1.991-1.198
	c0.016-0.006,0.145,0.188,0.288,0.426c0.886,1.517,1.649,2.056,2.923,2.051c0.892-0.005,1.426-0.179,1.843-0.595
	c0.297-0.297,0.466-0.619,0.609-1.159l0.109-0.411l0.015-8.759l0.02-8.753H55.088z"/>
</svg>
