<?xml version="1.0" standalone="no"?><!DOCTYPE svg PUBLIC "-//W3C//DTD SVG 1.1//EN" "http://www.w3.org/Graphics/SVG/1.1/DTD/svg11.dtd"><svg t="1609736937179" class="icon" viewBox="0 0 1024 1024" version="1.1" xmlns="http://www.w3.org/2000/svg" p-id="1910" xmlns:xlink="http://www.w3.org/1999/xlink" width="200" height="200"><defs><style type="text/css"></style></defs><path d="M482.3 387.5c29.6 0 58.7-1.3 86-3.8 8.9 16.5 26.6 27.4 46.8 26.6 25.8-1.1 47.1-22.3 48.3-48.2 1.3-29-21.8-53-50.6-53-25.1 0-45.9 18.3-49.9 42.3-25.6 2.2-52.9 3.4-80.7 3.4-58.1 0-113.6-5.1-156.3-14.3-47-10.2-62.2-22.1-64.1-25.8v-34c1.9-3.8 17.1-15.7 64.1-25.8 42.7-9.2 98.2-14.3 156.3-14.3s113.6 5.1 156.3 14.3c47.1 10.2 62.2 22.1 64.1 25.8l1.3 116c0.1 9.7-5.7 18.6-14.5 22.2-45.8 18.8-117.1 29.1-200.6 29.1-98.8 0-184.2-15.7-228.4-41.9l-4.7-2.8c-8.8-5.2-20 1.1-20 11.4v99c0 56.9 131.2 82.8 253.1 82.8 6.6 0 13.2-0.1 19.8-0.2v-32.7c-6.5 0.1-13 0.2-19.8 0.2-145.4 0-220.4-35.2-220.4-50.2v-67.2c52 21.9 130.2 34.2 220.4 34.2 62 0 149.3-5.5 213.1-31.5 21.4-8.7 35.1-29.5 34.8-52.8l-1.3-116.1c0-57.1-159.1-72.3-253.1-72.3s-253.1 15.2-253.1 72.3v35c0 57.1 159.1 72.3 253.1 72.3z" fill="#1E88E5" p-id="1911"></path><path d="M825.3 654.4c0-83-67.3-150.2-150.2-150.2s-150.2 67.3-150.2 150.2c0 47 21.6 88.9 55.3 116.4-43.8-0.6-85.7-1.2-93-1.2-144.4 0-218.8-36.1-218.8-51.5v-68.8c51.7 22.3 129.3 34.8 218.8 34.8 7.2 0 14.3-0.1 21.4-0.3v-32.7c-7.1 0.2-14.2 0.3-21.4 0.3-98 0-182.7-16-226.6-42.7l-8.9-5.4c-7-4.2-15.9 0.8-15.9 8.9V718c0 57.8 130.3 84.2 251.4 84.2 12.2 0 133 2 181.8 2.2 2.1 0.1 4.1 0.2 6.2 0.2 2 0 3.9-0.1 5.8-0.1 3.5 0 6-0.1 7.2-0.1v-0.4c76.8-6.6 137.1-71 137.1-149.6zM681.6 771.8h-13.1c-61.7-3.5-110.9-54.8-110.9-117.4 0-64.8 52.7-117.6 117.6-117.6s117.6 52.7 117.6 117.6c-0.1 62.7-49.4 114-111.2 117.4z" fill="#1E88E5" p-id="1912"></path><path d="M745.3 688.7h-85.2L644 672.6V571.1h32.7V656h68.6v32.7z" fill="#1E88E5" p-id="1913"></path></svg>