<?xml version="1.0" standalone="no"?><!DOCTYPE svg PUBLIC "-//W3C//DTD SVG 1.1//EN" "http://www.w3.org/Graphics/SVG/1.1/DTD/svg11.dtd"><svg t="1613971925099" class="icon" viewBox="0 0 1024 1024" version="1.1" xmlns="http://www.w3.org/2000/svg" p-id="1233" xmlns:xlink="http://www.w3.org/1999/xlink" width="200" height="200"><defs><style type="text/css"></style></defs><path d="M659.000889 418.133333h293.831111a16.327111 16.327111 0 0 0 16.327111-16.355555V107.832889a16.327111 16.327111 0 0 0-16.355555-16.327111h-293.831112a16.327111 16.327111 0 0 0-16.327111 16.327111v106.183111h-155.079111a8.135111 8.135111 0 0 0-8.106666 8.106667v253.155555h-97.962667V364.942222a16.327111 16.327111 0 0 0-16.327111-16.327111H71.224889a16.327111 16.327111 0 0 0-16.355556 16.327111v293.944889c0 9.045333 7.310222 16.355556 16.355556 16.355556h293.831111a16.327111 16.327111 0 0 0 16.327111-16.355556v-110.279111h97.962667v253.155556c0 4.437333 3.640889 8.106667 8.106666 8.106666h155.079112v106.183111c0 9.016889 7.310222 16.327111 16.355555 16.327111h293.831111a16.327111 16.327111 0 0 0 16.327111-16.355555V622.364444a16.327111 16.327111 0 0 0-16.355555-16.355555H659.000889a16.327111 16.327111 0 0 0-16.355556 16.355555v114.289778h-89.827555v-449.137778h89.827555v114.261334c0 9.045333 7.310222 16.355556 16.355556 16.355555z m61.155555-249.031111h171.406223v171.52h-171.434667v-171.52z m-416.256 428.657778H132.465778V426.382222h171.434666v171.434667z m416.227556 85.845333h171.434667v171.548445h-171.434667v-171.52z" p-id="1234"></path></svg>