<?xml version="1.0" standalone="no"?><!DOCTYPE svg PUBLIC "-//W3C//DTD SVG 1.1//EN" "http://www.w3.org/Graphics/SVG/1.1/DTD/svg11.dtd"><svg t="1609305227553" class="icon" viewBox="0 0 1024 1024" version="1.1" xmlns="http://www.w3.org/2000/svg" p-id="2372" xmlns:xlink="http://www.w3.org/1999/xlink" width="200" height="200"><defs><style type="text/css"></style></defs><path d="M170.666667 85.333333h298.666666a85.333333 85.333333 0 0 1 85.333334 85.333334v682.666666a85.333333 85.333333 0 0 1-85.333334 85.333334H170.666667a85.333333 85.333333 0 0 1-85.333334-85.333334V170.666667a85.333333 85.333333 0 0 1 85.333334-85.333334m0 341.333334v170.666666h298.666666v-170.666666H170.666667m0 256v170.666666h298.666666v-170.666666H170.666667M170.666667 170.666667v170.666666h298.666666V170.666667H170.666667m579.84 341.333333L640 401.493333 700.16 341.333333 810.666667 451.84 921.173333 341.333333 981.333333 401.493333 870.826667 512 981.333333 622.506667 921.173333 682.666667 810.666667 572.16 700.16 682.666667 640 622.506667 750.506667 512z" fill="" p-id="2373"></path></svg>