<?xml version="1.0" standalone="no"?><!DOCTYPE svg PUBLIC "-//W3C//DTD SVG 1.1//EN" "http://www.w3.org/Graphics/SVG/1.1/DTD/svg11.dtd"><svg t="1607597294624" class="icon" viewBox="0 0 1024 1024" version="1.1" xmlns="http://www.w3.org/2000/svg" p-id="1091" xmlns:xlink="http://www.w3.org/1999/xlink" width="200" height="200"><defs><style type="text/css"></style></defs><path d="M391.68 561.792c0 24.96-6.464 47.36-19.264 67.264-12.864 19.904-31.68 35.392-56.384 46.656s-54.08 16.896-88 16.896c-40.704 0-74.24-7.616-100.672-22.976-18.752-11.072-33.984-25.856-45.696-44.288C69.824 606.72 64 588.8 64 571.392 64 561.28 67.52 552.576 74.56 545.344c7.04-7.232 16-10.816 26.88-10.816 8.832 0 16.256 2.752 22.4 8.384C129.856 548.544 135.04 556.928 139.392 568 144.64 581.12 150.272 592.128 156.416 600.96c6.08 8.832 14.656 16.064 25.728 21.76 11.072 5.76 25.6 8.64 43.584 8.64 24.768 0 44.864-5.824 60.288-17.344 15.488-11.584 23.232-25.92 23.232-43.2 0-13.696-4.16-24.832-12.544-33.344-8.32-8.576-19.136-15.04-32.32-19.584-13.248-4.48-30.912-9.28-53.056-14.4C181.76 496.704 156.992 488.576 136.96 479.232c-19.968-9.28-35.84-21.952-47.488-37.952C77.696 425.28 71.872 405.376 71.872 381.568c0-22.656 6.208-42.88 18.56-60.48s30.272-31.168 53.696-40.64c23.424-9.472 51.008-14.272 82.688-14.272 25.344 0 47.168 3.2 65.664 9.408 18.432 6.336 33.792 14.656 45.952 25.088 12.16 10.368 21.12 21.312 26.688 32.768s8.448 22.656 8.448 33.472c0 9.92-3.52 18.88-10.56 26.816C356.096 401.728 347.328 405.696 336.832 405.696c-9.536 0-16.832-2.368-21.76-7.104C310.016 393.728 304.64 385.92 298.816 375.04 291.328 359.488 282.368 347.392 271.872 338.624 261.312 329.92 244.48 325.568 221.248 325.568c-21.568 0-38.912 4.736-52.16 14.208-13.184 9.472-19.84 20.864-19.84 34.176 0 8.256 2.24 15.36 6.72 21.376s10.688 11.2 18.56 15.488 15.872 7.68 23.936 10.112 21.376 6.016 39.936 10.624c23.232 5.504 44.288 11.52 63.168 17.984 18.816 6.656 34.88 14.592 48.064 23.936C362.816 482.88 373.12 494.72 380.544 509.056 387.968 523.456 391.68 540.992 391.68 561.792zM449.856 387.2l8.448 0L458.304 341.056c0-12.352 0.32-22.144 1.024-29.12 0.64-7.04 2.496-13.12 5.44-18.112 3.008-5.248 7.296-9.536 12.928-12.8C483.328 277.696 489.6 276.032 496.576 276.032c9.728 0 18.56 3.648 26.432 11.008 5.248 4.864 8.64 10.816 9.984 17.792C534.4 311.936 535.104 321.92 535.104 334.784L535.104 387.2l28.096 0c10.88 0 19.136 2.56 24.896 7.68 5.76 5.184 8.64 11.84 8.64 19.84 0 10.368-4.096 17.536-12.224 21.696S564.608 442.56 549.504 442.56L535.104 442.56l0 141.184c0 12.032 0.384 21.248 1.28 27.712C537.28 617.92 539.52 623.168 543.104 627.2c3.648 4.032 9.6 6.08 17.856 6.08 4.48 0 10.624-0.832 18.24-2.368 7.744-1.6 13.76-2.432 17.984-2.432 6.272 0 11.776 2.496 16.768 7.488 4.992 4.928 7.488 11.136 7.488 18.368 0 12.352-6.72 21.888-20.224 28.416s-33.024 9.792-58.24 9.792c-24 0-42.24-3.968-54.592-12.032s-20.48-19.2-24.32-33.408-5.76-33.344-5.76-57.152L458.304 442.56 448.192 442.56c-11.072 0-19.52-2.624-25.344-7.872S414.144 422.784 414.144 414.656c0-8 3.008-14.656 9.152-19.84C429.376 389.76 438.272 387.2 449.856 387.2zM725.76 581.824l0 64.128c0 15.552-3.648 27.2-10.88 35.008-7.36 7.744-16.64 11.648-27.904 11.648-11.136 0-20.096-3.904-27.264-11.776s-10.752-19.52-10.752-34.88l0-213.76c0-34.496 12.48-51.776 37.376-51.776 12.736 0 22.016 3.968 27.648 12.032s4.864 16.192 5.504 31.936c9.152-15.744 22.4-23.872 32-31.936s22.656-12.032 38.72-12.032 31.744 3.968 46.848 12.032c15.232 8.064 22.848 18.752 22.848 32.064 0 9.344-3.264 17.152-9.728 23.168-6.528 6.144-13.504 9.216-20.992 9.216-2.752 0-9.6-1.728-20.352-5.248-10.752-3.456-20.224-5.184-28.48-5.184-11.264 0-20.48 2.944-27.648 8.896-7.104 5.888-12.608 14.656-16.512 26.304-3.968 11.648-6.72 25.408-8.256 41.408C726.528 539.2 725.76 558.656 725.76 581.824zM881.344 607.936c-26.496 0-48 21.568-48 48 0 26.496 21.504 48.064 48 48.064s48-21.568 48-48.064C929.344 629.504 907.904 607.936 881.344 607.936z" p-id="1092"></path></svg>