<?xml version="1.0" standalone="no"?><!DOCTYPE svg PUBLIC "-//W3C//DTD SVG 1.1//EN" "http://www.w3.org/Graphics/SVG/1.1/DTD/svg11.dtd"><svg t="1607997275157" class="icon" viewBox="0 0 1024 1024" version="1.1" xmlns="http://www.w3.org/2000/svg" p-id="1814" xmlns:xlink="http://www.w3.org/1999/xlink" width="200" height="200"><defs><style type="text/css"></style></defs><path d="M759.665691 517.273986c-110.630241 0-200.305646 89.675406-200.305647 200.305647 0 110.630241 89.675406 200.305646 200.305647 200.305646s200.305646-89.675406 200.305646-200.305646c0.035278-110.594963-89.675406-200.305646-200.305646-200.305647z m0 351.11696c-83.290178 0-150.776036-67.521135-150.776037-150.776036 0-83.290178 67.521135-150.776036 150.776037-150.776036 83.290178 0 150.776036 67.521135 150.776036 150.776036 0.035278 83.254901-67.485858 150.776036-150.776036 150.776036z m-224.999897-46.98963c-23.671203 5.961898-48.25962 9.489648-73.694698 9.489648-170.884211 0-309.91284-143.050264-309.91284-318.908603s139.028629-318.908602 309.91284-318.908602c157.020154 0 286.841355 120.895993 306.914252 276.928377 31.643918 1.023048 61.841458 7.76105 89.393186 19.579013-11.42991-213.428877-184.783546-383.536983-396.307438-383.536983-218.896889 0-396.942433 182.102456-396.942433 405.938195S242.074207 917.920557 460.935818 917.920557c44.484928 0 87.205981-7.61994 127.175389-21.483998-22.224825-21.30761-40.392738-46.742688-53.445413-75.035243z m-73.729976-581.479037c-24.023978 0-43.497158 19.47318-43.497157 43.497158v228.562924c0 3.563028 0.56444 6.984945 1.340545 10.265753 3.95108 19.931788 21.554553 34.99528 42.650497 34.99528h109.219141c35.065835-41.309953 83.360733-71.048886 138.393634-82.443518-5.78551-2.8222-12.170738-4.550798-19.04985-4.550798H504.468254V283.454715c0-24.059255-19.47318-43.532435-43.532436-43.532436z m298.729873 355.844145c-67.16836 0-121.813208 54.644848-121.813209 121.813209s54.644848 121.813208 121.813209 121.813208 121.813208-54.644848 121.813208-121.813208c0.035278-67.133083-54.644848-121.813208-121.813208-121.813209z m0 208.842802c-47.9774 0-87.029593-39.052193-87.029594-87.029593s39.052193-87.029593 87.029594-87.029593 87.029593 39.052193 87.029593 87.029593-39.052193 87.029593-87.029593 87.029593z" fill="#333333" p-id="1815"></path></svg>