<svg t="1609304555648" class="icon" viewBox="0 0 1024 1024" version="1.1" xmlns="http://www.w3.org/2000/svg" p-id="3164" width="200" height="200"><path d="M213.333333 640v85.333333c0 44.970667 40.533333 85.333333 85.333334 85.333334h128v85.333333H298.666667a170.666667 170.666667 0 0 1-170.666667-170.666667v-85.333333h85.333333z m554.666667-213.333333l187.733333 469.333333h-91.946666l-51.242667-128h-174.506667l-51.157333 128h-91.904L682.666667 426.666667h85.333333z m-42.666667 123.093333L672.128 682.666667h106.325333L725.333333 549.76zM128 128h256a128 128 0 0 1 95.36 213.333333A128 128 0 0 1 384 554.666667H128V128z m256 256H213.333333v85.333333h170.666667a42.666667 42.666667 0 0 0 0-85.333333z m341.333333-256a170.666667 170.666667 0 0 1 170.666667 170.666667v85.333333h-85.333333V298.666667a85.333333 85.333333 0 0 0-85.333334-85.333334h-128V128h128zM384 213.333333H213.333333v85.333334h170.666667a42.666667 42.666667 0 1 0 0-85.333334z" p-id="3165"></path></svg>