<?xml version="1.0" standalone="no"?><!DOCTYPE svg PUBLIC "-//W3C//DTD SVG 1.1//EN" "http://www.w3.org/Graphics/SVG/1.1/DTD/svg11.dtd"><svg t="1609140448235" class="icon" viewBox="0 0 1024 1024" version="1.1" xmlns="http://www.w3.org/2000/svg" p-id="6382" xmlns:xlink="http://www.w3.org/1999/xlink" width="200" height="200"><defs><style type="text/css"></style></defs><path d="M512 96c229.76 0 416 186.24 416 416s-186.24 416-416 416S96 741.76 96 512 282.24 96 512 96z m0 64a352 352 0 1 0 0 704 352 352 0 0 0 0-704z m229.376 391.168v64h-349.44l30.72 30.72-45.226667 45.226667-85.333333-85.333334a32 32 0 0 1 22.613333-54.613333h426.666667z m-94.762667-218.325333l85.333334 85.333333a32 32 0 0 1-22.613334 54.613333h-426.666666v-64h349.397333l-30.72-30.72 45.226667-45.226666z" p-id="6383"></path></svg>