<?xml version="1.0" standalone="no"?><!DOCTYPE svg PUBLIC "-//W3C//DTD SVG 1.1//EN" "http://www.w3.org/Graphics/SVG/1.1/DTD/svg11.dtd"><svg t="1610096309468" class="icon" viewBox="0 0 1682 1024" version="1.1" xmlns="http://www.w3.org/2000/svg" p-id="14333" xmlns:xlink="http://www.w3.org/1999/xlink" width="350" height="200"><defs><style type="text/css"></style></defs><path d="M751.908571 101.229714v514.925715c0 232.886857-121.709714 349.915429-363.958857 349.915428-241.078857 0-361.618286-117.028571-361.618285-349.915428v-514.925715c0-39.789714 21.065143-60.854857 64.365714-60.854857 44.470857 0 66.706286 21.065143 66.706286 60.854857V611.474286c0 161.499429 77.238857 243.419429 230.546285 243.419428 155.648 0 232.886857-81.92 232.886857-243.419428V101.229714c0-39.789714 21.065143-60.854857 64.365715-60.854857 44.470857 0 66.706286 21.065143 66.706285 60.854857z m643.072 578.121143h-362.788571L936.228571 922.770286c-10.532571 25.746286-30.427429 37.449143-55.003428 37.449143-33.938286 0-69.046857-19.894857-69.046857-55.003429 0-9.362286 2.340571-18.724571 7.021714-30.427429l317.147429-771.218285c17.554286-42.130286 40.96-63.195429 79.579428-63.195429 42.130286 0 66.706286 21.065143 84.260572 63.195429l310.125714 770.048c4.681143 9.362286 5.851429 17.554286 5.851428 25.746285 0 32.768-28.086857 59.684571-70.217142 59.684572-25.746286 0-46.811429-10.532571-57.344-37.449143l-93.622858-242.249143z m-322.998857-105.325714h285.549715l-73.728-193.097143a2286.006857 2286.006857 0 0 1-67.876572-202.459429c-18.724571 60.854857-40.96 131.072-69.046857 202.459429l-74.898286 193.097143z" p-id="14334"></path></svg>