<?xml version="1.0" standalone="no"?><!DOCTYPE svg PUBLIC "-//W3C//DTD SVG 1.1//EN" "http://www.w3.org/Graphics/SVG/1.1/DTD/svg11.dtd"><svg t="1610076117914" class="icon" viewBox="0 0 1024 1024" version="1.1" xmlns="http://www.w3.org/2000/svg" p-id="3810" xmlns:xlink="http://www.w3.org/1999/xlink" width="200" height="200"><defs><style type="text/css"></style></defs><path d="M754.96 300.848l-56.576 56.56L804.976 464H535.568c-23.952-48-78.816-142.112-98.88-177.92C395.792 213.056 336.432 176 260.288 176H48v80h212.272c46.944 0 79.824 21.36 106.624 69.216 20.256 36.144 75.92 136.528 99.36 178.848a82249.408 82249.408 0 0 1-99.36 178.784C340.096 730.688 307.216 752 260.272 752H48v80h212.272c76.144 0 135.504-37.024 176.432-110.08C456.752 686.096 511.616 592 535.568 544h270.384l-107.568 107.568 56.576 56.56L958.608 504.48 754.96 300.848z" fill="#565D64" p-id="3811"></path></svg>