<?xml version="1.0" standalone="no"?><!DOCTYPE svg PUBLIC "-//W3C//DTD SVG 1.1//EN" "http://www.w3.org/Graphics/SVG/1.1/DTD/svg11.dtd"><svg t="1610085227605" class="icon" viewBox="0 0 1219 1024" version="1.1" xmlns="http://www.w3.org/2000/svg" p-id="514" xmlns:xlink="http://www.w3.org/1999/xlink" width="238.0859375" height="200"><defs><style type="text/css"></style></defs><path d="M300.93023395 512.05290658v-0.05290658c0-0.60842286-0.31743787-1.11103252-0.34389074-1.71945538a26.53251966 26.53251966 0 0 0-1.6665488-8.33274564 26.24153467 26.24153467 0 0 0-4.1531468-6.29585238c-0.55551626-0.7142352-0.82004837-1.58718933-1.48137698-2.24851795l-78.8039643-79.62401267a26.45316019 26.45316019 0 1 0-37.61639373 37.24604928l34.20393585 34.57428114H116.86914517a26.45316019 26.45316019 0 0 0 0 52.90632037h93.45901521l-33.27807597 33.03999673a26.47961306 26.47961306 0 0 0 37.27250299 37.56348798l78.8039643-78.27490173 0.0264537-0.05290576a26.55897253 26.55897253 0 0 0 7.77722856-18.72883741zM884.03724595 512.05290658v-0.05290658c0-0.60842286 0.31743787-1.11103252 0.34389156-1.71945538 0.18517182-2.83048791 0.58196915-5.66097666 1.6665488-8.33274564 0.97876731-2.35433113 2.56595663-4.3383186 4.12669309-6.29585238 0.55551626-0.7142352 0.82004837-1.58718933 1.50782986-2.24851795l78.8039643-79.62401267a26.50606677 26.50606677 0 0 1 37.61639456 37.24604928l-34.20393669 34.57428114h94.22615699a26.45316019 26.45316019 0 0 1 0 52.90632037h-93.43256232l33.27807597 33.03999673a26.45316019 26.45316019 0 0 1-37.29895588 37.56348798l-78.80396429-78.27490173-0.02645371-0.05290576a26.638332 26.638332 0 0 1-7.80368224-18.72883741z" fill="#777778" p-id="515"></path><path d="M421.21275378 128.16464477h345.00211661v763.83500234H421.21275378z" fill="#EFEEEE" p-id="516"></path><path d="M748.20026818 90.125h-308.9729122a56.50395007 56.50395007 0 0 0-56.4510443 56.45104432v730.84791136c0 31.13536954 25.31567478 56.45104432 56.4510443 56.45104432h308.9729122a56.50395007 56.50395007 0 0 0 56.4510435-56.45104432V146.57604432A56.50395007 56.50395007 0 0 0 748.20026818 90.125z m-308.9729122 52.90632037h308.9729122c1.95753379 0 3.54472311 1.58718933 3.54472313 3.54472395v206.44046245H435.68263287V146.57604432c0-1.95753379 1.58718933-3.54472311 3.54472311-3.54472395z m312.51763532 262.89150677v210.51424979H435.68263287v-210.51424978h316.06235844z m-3.54472312 475.04585249h-308.9729122a3.54472311 3.54472311 0 0 1-3.54472311-3.54472395v-208.08055837h316.06235844v208.08055837c0 1.95753379-1.58718933 3.54472311-3.54472313 3.54472395z" fill="#777778" p-id="517"></path></svg>