<?xml version="1.0" standalone="no"?><!DOCTYPE svg PUBLIC "-//W3C//DTD SVG 1.1//EN" "http://www.w3.org/Graphics/SVG/1.1/DTD/svg11.dtd"><svg t="1607943318632" class="icon" viewBox="0 0 1024 1024" version="1.1" xmlns="http://www.w3.org/2000/svg" p-id="919" xmlns:xlink="http://www.w3.org/1999/xlink" width="200" height="200"><defs><style type="text/css"></style></defs><path d="M955.733333 238.933333V170.666667h-102.4V102.4h-68.266666v307.2H68.266667v68.266667h716.8v477.866666h170.666666v-68.266666h-102.4v-170.666667h68.266667v-68.266667h-68.266667v-170.666666h102.4v-68.266667h-102.4V238.933333h102.4z m-262.826666 522.24L648.533333 805.205333l-44.032-44.032a33.9968 33.9968 0 0 0-48.128 0L512 805.205333l-44.032-44.032a33.9968 33.9968 0 0 0-48.128 0L375.466667 805.205333 331.434667 761.173333a33.9968 33.9968 0 0 0-48.128 0L238.933333 805.205333 194.901333 761.173333a33.9968 33.9968 0 1 0-48.128 48.128l67.925334 68.266667c13.312 13.312 34.816 13.312 48.128 0l44.373333-44.373333 44.032 44.032c13.312 13.312 34.816 13.312 48.128 0l44.373333-44.032 44.032 44.032c13.312 13.312 34.816 13.312 48.128 0l44.373334-44.032 44.032 44.032c6.826667 6.826667 15.36 10.24 24.234666 10.24s17.408-3.413333 24.234667-9.898667l68.266667-68.266667a33.9968 33.9968 0 1 0-48.128-48.128z m0-204.8L648.533333 600.405333l-44.032-44.032a33.9968 33.9968 0 0 0-48.128 0L512 600.405333l-44.032-44.032a33.9968 33.9968 0 0 0-48.128 0L375.466667 600.405333 331.434667 556.373333a33.9968 33.9968 0 0 0-48.128 0L238.933333 600.405333 194.901333 556.373333a33.9968 33.9968 0 1 0-48.128 48.128l67.925334 68.266667c13.312 13.312 34.816 13.312 48.128 0l44.373333-44.373333 44.032 44.032c13.312 13.312 34.816 13.312 48.128 0l44.373333-44.032 44.032 44.032c13.312 13.312 34.816 13.312 48.128 0l44.373334-44.032 44.032 44.032c6.826667 6.826667 15.36 10.24 24.234666 10.24s17.408-3.413333 24.234667-9.898667l68.266667-68.266667a33.9968 33.9968 0 1 0-48.128-48.128z" p-id="920"></path></svg>