<?xml version="1.0" standalone="no"?><!DOCTYPE svg PUBLIC "-//W3C//DTD SVG 1.1//EN" "http://www.w3.org/Graphics/SVG/1.1/DTD/svg11.dtd"><svg t="1608861097610" class="icon" viewBox="0 0 1024 1024" version="1.1" xmlns="http://www.w3.org/2000/svg" p-id="1746" xmlns:xlink="http://www.w3.org/1999/xlink" width="200" height="200"><defs><style type="text/css"></style></defs><path d="M320 420h152V256H128v512h344V484H320V512l-96.056-64L320 384v36z m448 192h-64V768h192V256H704v292h64v-36.144l96 64.072-96 63.92V612z m-128-192V208a16 16 0 0 1 16-16h288a16 16 0 0 1 16 16v608a16 16 0 0 1-16 16H656a16 16 0 0 1-16-16V612H536V816a16 16 0 0 1-16 16H80a16 16 0 0 1-16-16V208a16 16 0 0 1 16-16h440a16 16 0 0 1 16 16v212h104z m0 64H536v64h104v-64z" p-id="1747"></path></svg>