<?xml version="1.0" standalone="no"?><!DOCTYPE svg PUBLIC "-//W3C//DTD SVG 1.1//EN" "http://www.w3.org/Graphics/SVG/1.1/DTD/svg11.dtd"><svg t="1608087808983" class="icon" viewBox="0 0 1024 1024" version="1.1" xmlns="http://www.w3.org/2000/svg" p-id="4525" xmlns:xlink="http://www.w3.org/1999/xlink" width="200" height="200"><defs><style type="text/css"></style></defs><path d="M512 272c-132.5 0-240 107.5-240 240s107.5 240 240 240 240-107.5 240-240-107.5-240-240-240z m0 336c-53 0-96-43-96-96s43-96 96-96 96 43 96 96-43 96-96 96zM316.4 717.4l-54.8 204.4c-1.6 5.9-9 7.9-13.4 3.6l-40.9-40.9c-6.2-6.2-16.4-6.2-22.6 0L51.1 1018.2c-3.1 3.1-8.2 3.1-11.3 0l-34-33.9c-3.1-3.1-3.1-8.2 0-11.3l133.7-133.7c6.2-6.2 6.2-16.4 0-22.6l-40.9-40.9c-4.4-4.4-2.4-11.8 3.6-13.4l204.4-54.8c6-1.6 11.4 3.8 9.8 9.8zM1018.2 984.3l-33.9 33.9c-3.1 3.1-8.2 3.1-11.3 0L839.2 884.5c-6.2-6.2-16.4-6.2-22.6 0l-40.9 40.9c-4.4 4.4-11.8 2.4-13.4-3.6l-54.8-204.4c-1.6-5.9 3.8-11.4 9.8-9.8l204.4 54.8c5.9 1.6 7.9 9 3.6 13.4l-40.9 40.9c-6.2 6.2-6.2 16.4 0 22.6L1018.1 973c3.2 3.1 3.2 8.1 0.1 11.3zM98.6 248.1l40.9-40.9c6.2-6.2 6.2-16.4 0-22.6L5.8 50.9c-3.1-3.1-3.1-8.2 0-11.3L39.7 5.7c3.1-3.1 8.2-3.1 11.3 0l133.7 133.7c6.2 6.2 16.4 6.2 22.6 0l40.9-40.9c4.4-4.4 11.8-2.4 13.4 3.6l54.8 204.4c1.6 5.9-3.8 11.4-9.8 9.8l-204.4-54.7c-5.9-1.7-7.9-9.1-3.6-13.5zM884.5 207.3l40.9 40.9c4.4 4.4 2.4 11.8-3.6 13.4l-204.4 54.7c-5.9 1.6-11.4-3.8-9.8-9.8l54.8-204.4c1.6-5.9 9-7.9 13.4-3.6l40.9 40.9c6.2 6.2 16.4 6.2 22.6 0L972.9 5.7c3.1-3.1 8.2-3.1 11.3 0l33.9 33.9c3.1 3.1 3.1 8.2 0 11.3L884.5 184.6c-6.3 6.3-6.3 16.4 0 22.7z" p-id="4526"></path><path d="M512 512m-32 0a32 32 0 1 0 64 0 32 32 0 1 0-64 0Z" p-id="4527"></path></svg>