<?xml version="1.0" standalone="no"?><!DOCTYPE svg PUBLIC "-//W3C//DTD SVG 1.1//EN" "http://www.w3.org/Graphics/SVG/1.1/DTD/svg11.dtd"><svg t="1615188478072" class="icon" viewBox="0 0 1024 1024" version="1.1" xmlns="http://www.w3.org/2000/svg" p-id="2315" xmlns:xlink="http://www.w3.org/1999/xlink" width="200" height="200"><defs><style type="text/css"></style></defs><path d="M471.539512 998.524878m-25.475122 0a25.475122 25.475122 0 1 0 50.950244 0 25.475122 25.475122 0 1 0-50.950244 0Z" p-id="2316"></path><path d="M913.108293 542.969756m-25.475122 0a25.475122 25.475122 0 1 0 50.950244 0 25.475122 25.475122 0 1 0-50.950244 0Z" p-id="2317"></path><path d="M888.632195 0H313.194146l-41.959024 49.95122h592.421463c13.786537 0 24.97561 11.189073 24.97561 24.975609v472.538537h49.95122V49.95122c0-27.573073-22.378146-49.95122-49.95122-49.95122zM39.461463 939.082927c0 61.539902 22.378146 83.918049 49.95122 83.918049h380.628293v-49.95122H114.388293c-13.786537 0-24.97561-11.189073-24.97561-24.97561V253.752195l-47.953171 19.980488" p-id="2318"></path><path d="M173.330732 140.362927L313.194146 0v273.732683H39.461463zM579.933659 593.420488H261.244878c-13.786537 0-24.97561-11.189073-24.97561-24.97561s11.189073-24.97561 24.97561-24.97561h318.688781c13.786537 0 24.97561 11.189073 24.975609 24.97561s-11.189073 24.97561-24.975609 24.97561zM705.810732 382.626341H261.244878c-13.786537 0-24.97561-11.189073-24.97561-24.975609s11.189073-24.97561 24.97561-24.97561h444.565854c13.786537 0 24.97561 11.189073 24.975609 24.97561s-11.189073 24.97561-24.975609 24.975609zM751.266341 621.393171c-110.392195 0-199.804878 89.412683-199.804878 199.804878s89.412683 199.804878 199.804878 199.804878 199.804878-89.412683 199.804879-199.804878-89.412683-199.804878-199.804879-199.804878z m0 349.658536c-82.71922 0-149.853659-67.134439-149.853658-149.853658s67.134439-149.853659 149.853658-149.853659 149.853659 67.134439 149.853659 149.853659-67.134439 149.853659-149.853659 149.853658z" p-id="2319"></path><path d="M845.674146 859.160976H655.859512c-13.786537 0-24.97561-11.189073-24.97561-24.97561s11.189073-24.97561 24.97561-24.97561h189.814634c13.786537 0 24.97561 11.189073 24.97561 24.97561s-11.189073 24.97561-24.97561 24.97561z" p-id="2320"></path><path d="M829.090341 847.172683L750.766829 786.731707c-10.889366-8.391805-12.887415-24.076488-4.495609-35.065756 8.391805-10.889366 24.076488-12.887415 35.065756-4.49561l78.323512 60.440976c10.889366 8.391805 12.887415 24.076488 4.49561 35.065756-8.491707 10.989268-24.17639 12.987317-35.065757 4.49561z" p-id="2321"></path><path d="M862.457756 851.368585L786.931512 911.110244c-10.789463 8.59161-26.574049 6.693463-35.065756-4.096l-0.199805-0.199805c-8.59161-10.789463-6.693463-26.574049 4.096-35.065756l75.626147-59.741659c10.789463-8.59161 26.574049-6.693463 35.065756 4.096l0.199805 0.199805c8.491707 10.789463 6.693463 26.474146-4.195903 35.065756z" p-id="2322"></path></svg>